<?xml version="1.0" encoding="UTF-8" standalone="no" ?>
<!DOCTYPE svg PUBLIC "-//W3C//DTD SVG 1.1//EN" "http://www.w3.org/Graphics/SVG/1.1/DTD/svg11.dtd">
<svg xmlns="http://www.w3.org/2000/svg" xmlns:xlink="http://www.w3.org/1999/xlink" version="1.1" width="1836" height="700" viewBox="0 0 1836 700" xml:space="preserve">
<desc>Created with Fabric.js 5.2.4</desc>
<defs>
</defs>
<g transform="matrix(1 0 0 1 918 350)" id="2acd3064-eb52-4b63-bfe5-8716b84d7bdb"  >
<rect style="stroke: none; stroke-width: 1; stroke-dasharray: none; stroke-linecap: butt; stroke-dashoffset: 0; stroke-linejoin: miter; stroke-miterlimit: 4; fill: rgb(255,255,255); fill-rule: nonzero; opacity: 1;" vector-effect="non-scaling-stroke"  x="-918" y="-350" rx="0" ry="0" width="1836" height="700" />
</g>
<g transform="matrix(Infinity NaN NaN Infinity 0 0)" id="4f7c238c-88c9-4db5-a50e-f782c442aa8c"  >
</g>
<g transform="matrix(3.5 0 0 3.5 917 327.98)"  >
<g style="" vector-effect="non-scaling-stroke"   >
		<g transform="matrix(1.33 0 0 1.33 -120.47 -1.89)"  >
<path style="stroke: none; stroke-width: 1; stroke-dasharray: none; stroke-linecap: butt; stroke-dashoffset: 0; stroke-linejoin: miter; stroke-miterlimit: 4; fill: rgb(138,20,56); fill-rule: nonzero; opacity: 1;" vector-effect="non-scaling-stroke"  transform=" translate(-131.09, -81.48)" d="M 122.10547 50.730469 L 140.07812 50.730469 L 140.07812 52.359375 L 134.49609 52.359375 L 134.49609 85.753906 C 134.49609 95.359375 132.80859 105.58203 128.70312 112.22266 L 125.3125 107.58594 C 128.68359 99.808594 127.70703 90.050781 127.77344 85.753906 L 127.77344 52.359375 L 122.10547 52.359375 Z M 122.10547 50.730469" stroke-linecap="round" />
</g>
		<g transform="matrix(1.33 0 0 1.33 -179.62 0)"  >
<path style="stroke: none; stroke-width: 1; stroke-dasharray: none; stroke-linecap: butt; stroke-dashoffset: 0; stroke-linejoin: miter; stroke-miterlimit: 4; fill: rgb(138,20,56); fill-rule: nonzero; opacity: 1;" vector-effect="non-scaling-stroke"  transform=" translate(-86.73, -82.9)" d="M 93.628906 55.03125 L 94.324219 55.03125 C 96.191406 73.71875 100.05859 89.8125 113.21875 108.21875 C 121.40625 119.67188 132.41016 135.96875 132.41016 135.96875 L 143.84766 135.96875 C 143.84766 135.96875 127.32031 115.05859 120.98047 105.58203 C 106.01172 83.214844 100.85938 65.140625 100.01953 28.332031 L 100.01953 27.089844 L 90.398438 27.089844 L 90.398438 28.332031 C 90.703125 58.816406 87.246094 72.09375 82.609375 83.457031 C 79.410156 91.289063 73.101563 101.29688 65.421875 109.04297 C 65.429688 110.41016 66.101563 113.46875 66.691406 115.46484 C 72.007813 108.54688 80.855469 104.73047 88.621094 104.73047 C 94.273438 104.73047 99.464844 106.19141 104.10547 110.41406 C 105.94922 112.09375 109.13672 115.88281 114.44531 124.65234 C 108.76172 130.62891 100.81641 134.625 91.351563 134.625 C 78.105469 134.625 72.066406 129.69922 67.5625 123.29688 C 63.449219 117.44141 61.328125 108.73828 61.328125 95.234375 L 61.328125 52.359375 L 66.421875 52.359375 L 66.421875 50.726563 L 29.613281 50.726563 L 29.613281 52.359375 L 34.890625 52.359375 L 34.890625 83.730469 C 34.890625 101.55078 38.742188 111.47656 44.992188 120.08594 C 51.367188 128.86719 64.652344 138.70312 89.394531 138.70312 C 102.46484 138.70312 111.45703 132.99219 116.42969 127.96484 C 117.75781 130.23828 119.41797 133.12109 120.97266 135.96875 L 129.58594 135.96875 C 129.58594 135.96875 123.83594 127.28906 115.25391 114.91797 C 106.125 101.76172 97.332031 100.04297 88.632813 100.04297 C 84.023438 100.04297 78.585938 102.1875 75.449219 104.41016 L 75.1875 104.14844 C 80.90625 97.609375 84.574219 89.816406 86.863281 83.980469 C 89.277344 77.824219 93.175781 64.878906 93.628906 55.03125" stroke-linecap="round" />
</g>
		<g transform="matrix(1.33 0 0 1.33 -33.44 -17.17)"  >
<path style="stroke: none; stroke-width: 1; stroke-dasharray: none; stroke-linecap: butt; stroke-dashoffset: 0; stroke-linejoin: miter; stroke-miterlimit: 4; fill: rgb(0,0,0); fill-rule: nonzero; opacity: 1;" vector-effect="non-scaling-stroke"  transform=" translate(-196.37, -70.02)" d="M 196.47266 89.367188 C 206.64453 89.367188 212.25 84.5625 212.25 75.839844 L 212.25 50.664063 L 206.55469 50.664063 L 206.55469 75.734375 C 206.55469 81.683594 203.10547 84.824219 196.57812 84.824219 C 190.05078 84.824219 186.60156 81.683594 186.60156 75.734375 L 186.60156 50.664063 L 180.48437 50.664063 L 180.48437 75.839844 C 180.48437 84.5625 186.16016 89.367188 196.47266 89.367188" stroke-linecap="round" />
</g>
		<g transform="matrix(1.33 0 0 1.33 13.02 -10.39)"  >
<path style="stroke: none; stroke-width: 1; stroke-dasharray: none; stroke-linecap: butt; stroke-dashoffset: 0; stroke-linejoin: miter; stroke-miterlimit: 4; fill: rgb(0,0,0); fill-rule: nonzero; opacity: 1;" vector-effect="non-scaling-stroke"  transform=" translate(-231.21, -75.11)" d="M 243.41406 88.84375 L 243.41406 67.65625 C 243.41406 63.660156 240.44531 61.371094 235.26953 61.371094 C 230.32031 61.371094 226.24219 63.261719 224.39062 65.101563 L 224.39062 61.726563 L 219.01172 61.957031 L 219.01172 88.84375 L 224.65234 88.84375 L 224.65234 68.734375 C 226.35937 66.429688 230.07031 65.226563 232.88281 65.226563 C 236.17578 65.226563 237.77344 66.382813 237.77344 68.757813 L 237.77344 88.84375 Z M 243.41406 88.84375" stroke-linecap="round" />
</g>
		<g transform="matrix(1.33 0 0 1.33 41.47 -36.94)"  >
<path style="stroke: none; stroke-width: 1; stroke-dasharray: none; stroke-linecap: butt; stroke-dashoffset: 0; stroke-linejoin: miter; stroke-miterlimit: 4; fill: rgb(0,0,0); fill-rule: nonzero; opacity: 1;" vector-effect="non-scaling-stroke"  transform=" translate(-252.55, -55.19)" d="M 249.75391 57.777344 L 255.33984 57.777344 L 255.33984 52.605469 L 249.75391 52.605469 Z M 249.75391 57.777344" stroke-linecap="round" />
</g>
		<g transform="matrix(1.33 0 0 1.33 41.47 -10.11)"  >
<path style="stroke: none; stroke-width: 1; stroke-dasharray: none; stroke-linecap: butt; stroke-dashoffset: 0; stroke-linejoin: miter; stroke-miterlimit: 4; fill: rgb(0,0,0); fill-rule: nonzero; opacity: 1;" vector-effect="non-scaling-stroke"  transform=" translate(-252.55, -75.31)" d="M 249.75391 88.84375 L 255.33984 88.84375 L 255.33984 61.785156 L 249.75391 61.898438 Z M 249.75391 88.84375" stroke-linecap="round" />
</g>
		<g transform="matrix(1.33 0 0 1.33 67.41 -10.04)"  >
<path style="stroke: none; stroke-width: 1; stroke-dasharray: none; stroke-linecap: butt; stroke-dashoffset: 0; stroke-linejoin: miter; stroke-miterlimit: 4; fill: rgb(0,0,0); fill-rule: nonzero; opacity: 1;" vector-effect="non-scaling-stroke"  transform=" translate(-272, -75.37)" d="M 274.82031 88.84375 L 285.21484 62.234375 L 285.34766 61.894531 L 280.46094 61.894531 L 272.44922 83.402344 L 264.65234 62.058594 L 264.59375 61.894531 L 258.65234 61.894531 L 268.96484 88.84375 Z M 274.82031 88.84375" stroke-linecap="round" />
</g>
		<g transform="matrix(1.33 0 0 1.33 102.84 -10.04)"  >
<path style="stroke: none; stroke-width: 1; stroke-dasharray: none; stroke-linecap: butt; stroke-dashoffset: 0; stroke-linejoin: miter; stroke-miterlimit: 4; fill: rgb(0,0,0); fill-rule: nonzero; opacity: 1;" vector-effect="non-scaling-stroke"  transform=" translate(-298.58, -75.37)" d="M 291.95703 71.917969 C 293.08984 65.511719 296.89453 64.546875 299.08203 64.546875 C 304.77734 64.546875 305.63672 69.507813 305.71484 71.917969 Z M 310.61719 86.296875 L 310.61719 82.113281 L 310.19141 82.535156 C 308.64844 84.066406 305.11719 85.613281 301.35937 85.613281 C 294.94922 85.613281 291.69922 82.203125 291.69922 75.472656 L 291.69922 75.199219 L 311.01953 75.199219 L 311.04297 74.972656 C 311.09375 74.4375 311.09375 73.320313 311.09375 72.902344 C 311.09375 65.574219 306.71484 61.371094 299.08203 61.371094 C 292.60156 61.371094 286.05859 65.714844 286.05859 75.421875 C 286.05859 84.023438 291.41406 89.367188 300.03516 89.367188 C 306.16797 89.367188 309.41406 87.273438 310.52344 86.375 Z M 310.61719 86.296875" stroke-linecap="round" />
</g>
		<g transform="matrix(1.33 0 0 1.33 136.69 -10.35)"  >
<path style="stroke: none; stroke-width: 1; stroke-dasharray: none; stroke-linecap: butt; stroke-dashoffset: 0; stroke-linejoin: miter; stroke-miterlimit: 4; fill: rgb(0,0,0); fill-rule: nonzero; opacity: 1;" vector-effect="non-scaling-stroke"  transform=" translate(-323.96, -75.13)" d="M 321.64453 70.066406 C 322.90625 67.082031 325.89844 66.015625 328.28125 66.015625 C 329.66797 66.015625 330.98047 66.253906 331.54297 66.605469 L 331.92578 66.847656 L 331.92578 62.292969 L 331.83984 62.21875 C 331.23828 61.691406 330.16406 61.421875 328.65234 61.421875 C 325.88672 61.421875 323.10937 63.109375 321.32422 65.84375 L 321.32422 61.726563 L 316.00391 61.957031 L 316.00391 88.84375 L 321.64453 88.84375 Z M 321.64453 70.066406" stroke-linecap="round" />
</g>
		<g transform="matrix(1.33 0 0 1.33 162.87 -10.04)"  >
<path style="stroke: none; stroke-width: 1; stroke-dasharray: none; stroke-linecap: butt; stroke-dashoffset: 0; stroke-linejoin: miter; stroke-miterlimit: 4; fill: rgb(0,0,0); fill-rule: nonzero; opacity: 1;" vector-effect="non-scaling-stroke"  transform=" translate(-343.6, -75.37)" d="M 344.84375 73.085938 C 341.41406 71.953125 339.34375 71.269531 339.34375 68.597656 C 339.34375 66.390625 341.40234 65.019531 344.71094 65.019531 C 347.30078 65.019531 350.10937 65.949219 351.74219 66.875 L 352.11719 67.085938 L 352.11719 63.265625 L 351.99609 63.191406 C 350.64844 62.351563 347.78125 61.371094 344.12891 61.371094 C 338.05859 61.371094 334.28516 64.359375 334.28516 69.175781 C 334.28516 73.859375 337.93359 75.738281 341.87109 77.074219 L 342.64844 77.347656 C 345.94141 78.515625 348.11719 79.285156 348.11719 81.980469 C 348.11719 84.566406 346.22266 85.824219 342.32812 85.824219 C 339.21484 85.824219 336.00781 84.402344 334.21484 82.992188 L 333.80859 82.671875 L 333.80859 86.710938 L 333.89453 86.785156 C 335.35156 88.066406 338.89844 89.367188 342.85547 89.367188 C 349.55078 89.367188 353.38672 86.503906 353.38672 81.507813 C 353.38672 76.332031 349.34766 74.570313 344.84375 73.085938" stroke-linecap="round" />
</g>
		<g transform="matrix(1.33 0 0 1.33 186.68 -36.94)"  >
<path style="stroke: none; stroke-width: 1; stroke-dasharray: none; stroke-linecap: butt; stroke-dashoffset: 0; stroke-linejoin: miter; stroke-miterlimit: 4; fill: rgb(0,0,0); fill-rule: nonzero; opacity: 1;" vector-effect="non-scaling-stroke"  transform=" translate(-361.46, -55.19)" d="M 364.25391 52.605469 L 358.66406 52.605469 L 358.66406 57.777344 L 364.25391 57.777344 Z M 364.25391 52.605469" stroke-linecap="round" />
</g>
		<g transform="matrix(1.33 0 0 1.33 186.68 -10.11)"  >
<path style="stroke: none; stroke-width: 1; stroke-dasharray: none; stroke-linecap: butt; stroke-dashoffset: 0; stroke-linejoin: miter; stroke-miterlimit: 4; fill: rgb(0,0,0); fill-rule: nonzero; opacity: 1;" vector-effect="non-scaling-stroke"  transform=" translate(-361.46, -75.31)" d="M 364.25391 61.785156 L 358.66406 61.898438 L 358.66406 88.84375 L 364.25391 88.84375 Z M 364.25391 61.785156" stroke-linecap="round" />
</g>
		<g transform="matrix(1.33 0 0 1.33 208.38 -14.5)"  >
<path style="stroke: none; stroke-width: 1; stroke-dasharray: none; stroke-linecap: butt; stroke-dashoffset: 0; stroke-linejoin: miter; stroke-miterlimit: 4; fill: rgb(0,0,0); fill-rule: nonzero; opacity: 1;" vector-effect="non-scaling-stroke"  transform=" translate(-377.73, -72.02)" d="M 379.84766 89.367188 C 382.9375 89.367188 385.57812 88.410156 386.58984 87.460938 L 386.67187 87.386719 L 386.67187 83.59375 L 386.25781 83.941406 C 385.20312 84.828125 383.4375 85.402344 381.75781 85.402344 C 379.25 85.402344 378.08594 84.382813 378.08594 82.191406 L 378.08594 65.542969 L 386.03516 65.542969 L 386.03516 61.894531 L 378.08594 61.894531 L 378.08594 54.679688 L 372.60547 57.046875 L 372.60547 61.875 L 368.78906 62.453125 L 368.78906 65.542969 L 372.55078 65.542969 L 372.55078 83.238281 C 372.55078 87.191406 375.14453 89.367188 379.84766 89.367188" stroke-linecap="round" />
</g>
		<g transform="matrix(1.33 0 0 1.33 242.04 -39.25)"  >
<path style="stroke: none; stroke-width: 1; stroke-dasharray: none; stroke-linecap: butt; stroke-dashoffset: 0; stroke-linejoin: miter; stroke-miterlimit: 4; fill: rgb(0,0,0); fill-rule: nonzero; opacity: 1;" vector-effect="non-scaling-stroke"  transform=" translate(-402.98, -53.46)" d="M 407.73437 49.351563 L 401.94922 49.351563 L 398.22266 57.566406 L 401.91797 57.566406 Z M 407.73437 49.351563" stroke-linecap="round" />
</g>
		<g transform="matrix(1.33 0 0 1.33 239.08 -10.04)"  >
<path style="stroke: none; stroke-width: 1; stroke-dasharray: none; stroke-linecap: butt; stroke-dashoffset: 0; stroke-linejoin: miter; stroke-miterlimit: 4; fill: rgb(0,0,0); fill-rule: nonzero; opacity: 1;" vector-effect="non-scaling-stroke"  transform=" translate(-400.76, -75.37)" d="M 401.26172 64.546875 C 406.95703 64.546875 407.81641 69.507813 407.89453 71.917969 L 394.13672 71.917969 C 395.27344 65.511719 399.07422 64.546875 401.26172 64.546875 M 401.26172 61.371094 C 394.78125 61.371094 388.23828 65.714844 388.23828 75.421875 C 388.23828 84.023438 393.59375 89.367188 402.21484 89.367188 C 408.35156 89.367188 411.59375 87.273438 412.70312 86.371094 L 412.79687 86.296875 L 412.79687 82.113281 L 412.37109 82.535156 C 410.82812 84.066406 407.30078 85.613281 403.53906 85.613281 C 397.12891 85.613281 393.87891 82.203125 393.87891 75.472656 L 393.87891 75.199219 L 413.19922 75.199219 L 413.22266 74.972656 C 413.27734 74.4375 413.27734 73.320313 413.27734 72.902344 C 413.27734 65.574219 408.89844 61.371094 401.26172 61.371094" stroke-linecap="round" />
</g>
		<g transform="matrix(1.33 0 0 1.33 -37.08 45.29)"  >
<path style="stroke: none; stroke-width: 1; stroke-dasharray: none; stroke-linecap: butt; stroke-dashoffset: 0; stroke-linejoin: miter; stroke-miterlimit: 4; fill: rgb(0,0,0); fill-rule: nonzero; opacity: 1;" vector-effect="non-scaling-stroke"  transform=" translate(-193.64, -116.87)" d="M 186.60156 101.74219 L 192.71094 101.74219 C 198.03516 101.74219 200.51562 104.11328 200.51562 109.20703 C 200.51562 114.16016 197.89062 116.66797 192.71094 116.66797 L 186.60156 116.66797 Z M 194.08594 97.777344 L 180.48437 97.777344 L 180.48437 135.95703 L 186.60156 135.95703 L 186.60156 120.68359 L 193.875 120.68359 C 201.83984 120.68359 206.78906 116.28516 206.78906 109.20703 C 206.78906 102.05078 202.03906 97.777344 194.08594 97.777344" stroke-linecap="round" />
</g>
		<g transform="matrix(1.33 0 0 1.33 0.2 52.78)"  >
<path style="stroke: none; stroke-width: 1; stroke-dasharray: none; stroke-linecap: butt; stroke-dashoffset: 0; stroke-linejoin: miter; stroke-miterlimit: 4; fill: rgb(0,0,0); fill-rule: nonzero; opacity: 1;" vector-effect="non-scaling-stroke"  transform=" translate(-221.6, -122.48)" d="M 218.57422 133.14844 C 216.86719 133.14844 214.00391 132.60547 214.00391 128.98828 C 214.00391 125.49609 216.70703 124.58203 219.09375 123.76953 C 219.30469 123.69922 219.51172 123.62891 219.71875 123.55859 C 221.86328 122.79688 223.45703 121.94531 224.26172 121.13281 L 224.26172 129.96875 C 223.04297 131.98828 220.97656 133.14844 218.57422 133.14844 M 231.76953 133.04297 C 230.46094 133.04297 229.79297 132.34766 229.79297 130.98437 L 229.79297 114.19141 C 229.79297 110.35156 226.53906 108.48438 219.84766 108.48438 C 215.59766 108.48438 212.03906 109.70703 210.52734 110.84375 L 210.42969 110.91797 L 210.42969 114.46484 L 210.80469 114.25 C 213.05469 112.96875 215.66797 112.28906 218.36328 112.28906 C 222.55078 112.28906 224.26172 113.09766 224.26172 115.08203 L 224.26172 116.55078 C 224.26172 118.59375 221.95703 119.46094 217.54297 120.93359 L 217.25391 121.02344 C 213.06641 122.33203 208.73437 123.6875 208.73437 129.30469 C 208.73437 133.59766 212.05078 136.48047 216.98437 136.48047 C 221.58203 136.48047 223.875 134.64453 225.00781 132.98437 C 225.41797 135.15234 227.28125 136.48047 229.96875 136.48047 C 231.89453 136.48047 233.54687 135.94141 234.39062 135.03516 L 234.45703 134.96484 L 234.45703 132.19531 L 234.07031 132.45312 C 233.64062 132.73828 232.73828 133.04297 231.76953 133.04297" stroke-linecap="round" />
</g>
		<g transform="matrix(1.33 0 0 1.33 32.32 52.47)"  >
<path style="stroke: none; stroke-width: 1; stroke-dasharray: none; stroke-linecap: butt; stroke-dashoffset: 0; stroke-linejoin: miter; stroke-miterlimit: 4; fill: rgb(0,0,0); fill-rule: nonzero; opacity: 1;" vector-effect="non-scaling-stroke"  transform=" translate(-245.68, -122.25)" d="M 250.375 108.53516 C 247.60547 108.53516 244.82812 110.22266 243.04687 112.95703 L 243.04687 108.83984 L 237.72266 109.07031 L 237.72266 135.95703 L 243.36328 135.95703 L 243.36328 117.17969 C 244.62891 114.19531 247.61719 113.12891 250.00391 113.12891 C 251.39062 113.12891 252.69922 113.36719 253.26172 113.72266 L 253.64453 113.96094 L 253.64453 109.40625 L 253.5625 109.33203 C 252.95703 108.80469 251.88672 108.53516 250.375 108.53516" stroke-linecap="round" />
</g>
		<g transform="matrix(1.33 0 0 1.33 51.43 25.88)"  >
<path style="stroke: none; stroke-width: 1; stroke-dasharray: none; stroke-linecap: butt; stroke-dashoffset: 0; stroke-linejoin: miter; stroke-miterlimit: 4; fill: rgb(0,0,0); fill-rule: nonzero; opacity: 1;" vector-effect="non-scaling-stroke"  transform=" translate(-260.02, -102.3)" d="M 257.22656 104.89063 L 262.8125 104.89063 L 262.8125 99.71875 L 257.22656 99.71875 Z M 257.22656 104.89063" stroke-linecap="round" />
</g>
		<g transform="matrix(1.33 0 0 1.33 51.43 52.71)"  >
<path style="stroke: none; stroke-width: 1; stroke-dasharray: none; stroke-linecap: butt; stroke-dashoffset: 0; stroke-linejoin: miter; stroke-miterlimit: 4; fill: rgb(0,0,0); fill-rule: nonzero; opacity: 1;" vector-effect="non-scaling-stroke"  transform=" translate(-260.02, -122.43)" d="M 257.22656 135.95703 L 262.8125 135.95703 L 262.8125 108.89844 L 257.22656 109.01563 Z M 257.22656 135.95703" stroke-linecap="round" />
</g>
		<g transform="matrix(1.33 0 0 1.33 75.74 52.78)"  >
<path style="stroke: none; stroke-width: 1; stroke-dasharray: none; stroke-linecap: butt; stroke-dashoffset: 0; stroke-linejoin: miter; stroke-miterlimit: 4; fill: rgb(0,0,0); fill-rule: nonzero; opacity: 1;" vector-effect="non-scaling-stroke"  transform=" translate(-278.25, -122.48)" d="M 279.49609 120.19922 C 276.06641 119.06641 273.99609 118.38281 273.99609 115.71484 C 273.99609 113.50391 276.05469 112.13281 279.36328 112.13281 C 281.95703 112.13281 284.76172 113.06641 286.39453 113.98828 L 286.76953 114.19922 L 286.76953 110.37891 L 286.64844 110.30469 C 285.30469 109.46484 282.43359 108.48438 278.78125 108.48438 C 272.71094 108.48438 268.9375 111.47656 268.9375 116.28906 C 268.9375 120.96875 272.58594 122.85156 276.52344 124.1875 L 277.30078 124.46484 C 280.59375 125.62891 282.76953 126.39844 282.76953 129.09375 C 282.76953 131.67969 280.875 132.9375 276.98047 132.9375 C 273.86328 132.9375 270.66016 131.51562 268.86719 130.10547 L 268.46094 129.78516 L 268.46094 133.82422 L 268.54687 133.89844 C 270.00391 135.17969 273.55078 136.48047 277.50781 136.48047 C 284.20312 136.48047 288.03906 133.61719 288.03906 128.62109 C 288.03906 123.44922 284 121.68359 279.49609 120.19922" stroke-linecap="round" />
</g>
		<g transform="matrix(1.33 0 0 1.33 132.41 45.29)"  >
<path style="stroke: none; stroke-width: 1; stroke-dasharray: none; stroke-linecap: butt; stroke-dashoffset: 0; stroke-linejoin: miter; stroke-miterlimit: 4; fill: rgb(0,0,0); fill-rule: nonzero; opacity: 1;" vector-effect="non-scaling-stroke"  transform=" translate(-320.76, -116.87)" d="M 325.47266 132.14844 C 316.65234 132.14844 310.72266 126.00781 310.72266 116.86719 C 310.72266 107.58594 316.57422 101.58594 325.62891 101.58594 C 329.76953 101.58594 333.16797 102.68359 336.02344 104.94141 L 336.42578 105.26172 L 336.42578 100.46875 L 336.31641 100.39453 C 334.16016 98.933594 330.9375 97.253906 325.10156 97.253906 C 312.74609 97.253906 304.44922 105.13672 304.44922 116.86719 C 304.44922 128.59766 312.53516 136.48047 324.57031 136.48047 C 329.75781 136.48047 333.8125 135.3125 336.96094 132.91406 L 337.0625 132.83984 L 337.0625 127.88281 L 336.65234 128.21875 C 333.36719 130.90234 329.81641 132.14844 325.47266 132.14844" stroke-linecap="round" />
</g>
		<g transform="matrix(1.33 0 0 1.33 166.19 25.88)"  >
<path style="stroke: none; stroke-width: 1; stroke-dasharray: none; stroke-linecap: butt; stroke-dashoffset: 0; stroke-linejoin: miter; stroke-miterlimit: 4; fill: rgb(0,0,0); fill-rule: nonzero; opacity: 1;" vector-effect="non-scaling-stroke"  transform=" translate(-346.09, -102.3)" d="M 343.29687 104.89063 L 348.88281 104.89063 L 348.88281 99.71875 L 343.29687 99.71875 Z M 343.29687 104.89063" stroke-linecap="round" />
</g>
		<g transform="matrix(1.33 0 0 1.33 166.19 52.71)"  >
<path style="stroke: none; stroke-width: 1; stroke-dasharray: none; stroke-linecap: butt; stroke-dashoffset: 0; stroke-linejoin: miter; stroke-miterlimit: 4; fill: rgb(0,0,0); fill-rule: nonzero; opacity: 1;" vector-effect="non-scaling-stroke"  transform=" translate(-346.09, -122.43)" d="M 343.29687 135.95703 L 348.88281 135.95703 L 348.88281 108.89844 L 343.29687 109.01563 Z M 343.29687 135.95703" stroke-linecap="round" />
</g>
		<g transform="matrix(1.33 0 0 1.33 187.89 48.32)"  >
<path style="stroke: none; stroke-width: 1; stroke-dasharray: none; stroke-linecap: butt; stroke-dashoffset: 0; stroke-linejoin: miter; stroke-miterlimit: 4; fill: rgb(0,0,0); fill-rule: nonzero; opacity: 1;" vector-effect="non-scaling-stroke"  transform=" translate(-362.36, -119.14)" d="M 366.38672 132.51562 C 363.88281 132.51562 362.71484 131.49609 362.71484 129.30469 L 362.71484 112.65625 L 370.66406 112.65625 L 370.66406 109.00781 L 362.71484 109.00781 L 362.71484 101.79297 L 357.23437 104.16406 L 357.23437 108.99219 L 353.41797 109.56641 L 353.41797 112.65625 L 357.17969 112.65625 L 357.17969 130.35156 C 357.17969 134.30469 359.77344 136.48047 364.48047 136.48047 C 367.5625 136.48047 370.20312 135.52344 371.22266 134.57812 L 371.30078 134.50391 L 371.30078 130.70703 L 370.89062 131.05469 C 369.83203 131.94141 368.06641 132.51562 366.38672 132.51562" stroke-linecap="round" />
</g>
		<g transform="matrix(1.33 0 0 1.33 221.55 23.57)"  >
<path style="stroke: none; stroke-width: 1; stroke-dasharray: none; stroke-linecap: butt; stroke-dashoffset: 0; stroke-linejoin: miter; stroke-miterlimit: 4; fill: rgb(0,0,0); fill-rule: nonzero; opacity: 1;" vector-effect="non-scaling-stroke"  transform=" translate(-387.61, -100.57)" d="M 386.55078 104.67969 L 392.36328 96.46875 L 386.57812 96.46875 L 382.85547 104.67969 Z M 386.55078 104.67969" stroke-linecap="round" />
</g>
		<g transform="matrix(1.33 0 0 1.33 218.59 52.78)"  >
<path style="stroke: none; stroke-width: 1; stroke-dasharray: none; stroke-linecap: butt; stroke-dashoffset: 0; stroke-linejoin: miter; stroke-miterlimit: 4; fill: rgb(0,0,0); fill-rule: nonzero; opacity: 1;" vector-effect="non-scaling-stroke"  transform=" translate(-385.39, -122.48)" d="M 385.89062 111.66016 C 391.58984 111.66016 392.44531 116.62109 392.52344 119.03125 L 378.76953 119.03125 C 379.90234 112.625 383.70312 111.66016 385.89062 111.66016 M 385.89062 108.48438 C 379.41016 108.48438 372.87109 112.82813 372.87109 122.53516 C 372.87109 131.13672 378.22656 136.48047 386.84375 136.48047 C 392.97656 136.48047 396.22656 134.38672 397.33594 133.48437 L 397.42969 133.41016 L 397.42969 129.23047 L 397.00391 129.65234 C 395.45703 131.17969 391.92969 132.72656 388.16797 132.72656 C 381.75781 132.72656 378.50781 129.31641 378.50781 122.58594 L 378.50781 122.3125 L 397.82812 122.3125 L 397.85156 122.08594 C 397.90625 121.55078 397.90625 120.43359 397.90625 120.01563 C 397.90625 112.6875 393.52734 108.48438 385.89062 108.48438" stroke-linecap="round" />
</g>
</g>
</g>
</svg>