<svg xmlns="http://www.w3.org/2000/svg" xmlns:xlink="http://www.w3.org/1999/xlink" xmlns:lucid="lucid" width="1655.23" height="569.5"><g transform="translate(-372.2356897057639 735.4610550070063)" lucid:page-tab-id="uDe-dIt-NWfS"><path d="M0-1000h2500V0H0z" fill="#fff"/><path d="M393.24-713.96h743v47h-743z" fill="#dfe3e8"/><path d="M1136.24-713.96h118v47h-118zM1254.24-713.96h112v47h-112zM1366.24-713.96h108v47h-108zM1474.24-713.96h112v47h-112zM1586.24-713.96h106v47h-106zM1692.24-713.96h106v47h-106z" fill="#f2f2ff"/><path d="M393.24-666.96h743v32h-743z" fill="#fff"/><path d="M1136.24-666.96h118v32h-118z" fill="#ffdda6"/><path d="M1254.24-666.96h112v32h-112zM1366.24-666.96h108v32h-108zM1474.24-666.96h112v32h-112zM1586.24-666.96h106v32h-106zM1692.24-666.96h106v32h-106zM393.24-634.96h743v32h-743zM1136.24-634.96h118v32h-118z" fill="#fff"/><path d="M1254.24-634.96h112v32h-112z" fill="#ffdda6"/><path d="M1366.24-634.96h108v32h-108zM1474.24-634.96h112v32h-112zM1586.24-634.96h106v32h-106zM1692.24-634.96h106v32h-106zM393.24-602.96h743v32h-743zM1136.24-602.96h118v32h-118zM1254.24-602.96h112v32h-112z" fill="#fff"/><path d="M1366.24-602.96h108v32h-108z" fill="#ffdda6"/><path d="M1474.24-602.96h112v32h-112zM1586.24-602.96h106v32h-106zM1692.24-602.96h106v32h-106zM393.24-570.96h743v32h-743zM1136.24-570.96h118v32h-118zM1254.24-570.96h112v32h-112zM1366.24-570.96h108v32h-108z" fill="#fff"/><path d="M1474.24-570.96h112v32h-112z" fill="#ffdda6"/><path d="M1586.24-570.96h106v32h-106zM1692.24-570.96h106v32h-106zM393.24-538.96h743v32h-743zM1136.24-538.96h118v32h-118zM1254.24-538.96h112v32h-112z" fill="#fff"/><path d="M1366.24-538.96h108v32h-108z" fill="#c3f7c8"/><path d="M1474.24-538.96h112v32h-112zM1586.24-538.96h106v32h-106zM1692.24-538.96h106v32h-106zM393.24-506.96h743v32h-743zM1136.24-506.96h118v32h-118zM1254.24-506.96h112v32h-112z" fill="#fff"/><path d="M1366.24-506.96h108v32h-108z" fill="#ffd9d9"/><path d="M1474.24-506.96h112v32h-112zM1586.24-506.96h106v32h-106z" fill="#fff"/><path d="M1692.24-506.96h106v32h-106z" fill-opacity="0"/><path d="M393.24-474.96h743v32h-743zM1136.24-474.96h118v32h-118zM1254.24-474.96h112v32h-112zM1366.24-474.96h108v32h-108z" fill="#fff"/><path d="M1474.24-474.96h112v32h-112z" fill="#ffd9d9"/><path d="M1586.24-474.96h106v32h-106z" fill="#fff"/><path d="M1692.24-474.96h106v32h-106z" fill-opacity="0"/><path d="M393.24-442.96h743v32h-743z" fill="#fff"/><path d="M1136.24-442.96h118v32h-118z" fill-opacity="0"/><path d="M1254.24-442.96h112v32h-112z" fill="#c3f7c8"/><path d="M1366.24-442.96h108v32h-108zM1474.24-442.96h112v32h-112zM1586.24-442.96h106v32h-106zM1692.24-442.96h106v32h-106zM393.24-410.96h743v32h-743z" fill="#fff"/><path d="M1136.24-410.96h118v32h-118z" fill="#ffd9d9"/><path d="M1254.24-410.96h112v32h-112z" fill-opacity="0"/><path d="M1366.24-410.96h108v32h-108zM1474.24-410.96h112v32h-112zM1586.24-410.96h106v32h-106zM1692.24-410.96h106v32h-106zM393.24-378.96h743v32h-743z" fill="#fff"/><path d="M1136.24-378.96h118v32h-118z" fill="#c3f7c8"/><path d="M1254.24-378.96h112v32h-112z" fill-opacity="0"/><path d="M1366.24-378.96h108v32h-108z" fill="#fff"/><path d="M1474.24-378.96h112v32h-112z" fill-opacity="0"/><path d="M1586.24-378.96h106v32h-106z" fill="#fff"/><path d="M1692.24-378.96h106v32h-106z" fill-opacity="0"/><path d="M393.24-346.96h743v32h-743zM1136.24-346.96h118v32h-118z" fill="#fff"/><path d="M1254.24-346.96h112v32h-112z" fill="#ffd9d9"/><path d="M1366.24-346.96h108v32h-108zM1474.24-346.96h112v32h-112zM1586.24-346.96h106v32h-106zM1692.24-346.96h106v32h-106z" fill-opacity="0"/><path d="M393.24-314.96h743v32h-743zM1136.24-314.96h118v32h-118zM1254.24-314.96h112v32h-112zM1366.24-314.96h108v32h-108z" fill="#fff"/><path d="M1474.24-314.96h112v32h-112z" fill="#c3f7c8"/><path d="M1586.24-314.96h106v32h-106z" fill-opacity="0"/><path d="M1692.24-314.96h106v32h-106zM393.24-282.96h743v32h-743zM1136.24-282.96h118v32h-118zM1254.24-282.96h112v32h-112zM1366.24-282.96h108v32h-108zM1474.24-282.96h112v32h-112z" fill="#fff"/><path d="M1586.24-282.96h106v32h-106z" fill="#ffd9d9"/><path d="M1692.24-282.96h106v32h-106z" fill-opacity="0"/><path d="M393.24-250.96h743v32h-743zM1136.24-250.96h118v32h-118zM1254.24-250.96h112v32h-112zM1366.24-250.96h108v32h-108zM1474.24-250.96h112v32h-112z" fill="#fff"/><path d="M1586.24-250.96h106v32h-106z" fill="#ffdda6"/><path d="M1692.24-250.96h106v32h-106zM393.24-218.96h743v32h-743zM1136.24-218.96h118v32h-118zM1254.24-218.96h112v32h-112zM1366.24-218.96h108v32h-108zM1474.24-218.96h112v32h-112zM1586.24-218.96h106v32h-106z" fill="#fff"/><path d="M1692.24-218.96h106v32h-106z" fill="#ffd9d9"/><path d="M393.24-713.96v47M393.24-713.96h743M1136.24-713.96v47M1136.24-713.96h118M1254.24-713.96v47M1254.24-713.96h112M1366.24-713.96v47M1366.24-713.96h108M1474.24-713.96v47M1474.24-713.96h112M1586.24-713.96v47M1586.24-713.96h106M1692.24-713.96v47M1798.24-713.96v47M1692.24-713.96h106M393.24-666.96v32M393.24-666.96h743M1136.24-666.96v32M1136.24-666.96h118M1254.24-666.96v32M1254.24-666.96h112M1366.24-666.96v32M1366.24-666.96h108M1474.24-666.96v32M1474.24-666.96h112M1586.24-666.96v32M1586.24-666.96h106M1692.24-666.96v32M1798.24-666.96v32M1692.24-666.96h106M393.24-634.96v32M393.24-634.96h743M1136.24-634.96v32M1136.24-634.96h118M1254.24-634.96v32M1254.24-634.96h112M1366.24-634.96v32M1366.24-634.96h108M1474.24-634.96v32M1474.24-634.96h112M1586.24-634.96v32M1586.24-634.96h106M1692.24-634.96v32M1798.24-634.96v32M1692.24-634.96h106M393.24-602.96v32M393.24-602.96h743M1136.24-602.96v32M1136.24-602.96h118M1254.24-602.96v32M1254.24-602.96h112M1366.24-602.96v32M1366.24-602.96h108M1474.24-602.96v32M1474.24-602.96h112M1586.24-602.96v32M1586.24-602.96h106M1692.24-602.96v32M1798.24-602.96v32M1692.24-602.96h106M393.24-570.96v32M393.24-570.96h743M1136.24-570.96v32M1136.24-570.96h118M1254.24-570.96v32M1254.24-570.96h112M1366.24-570.96v32M1366.24-570.96h108M1474.24-570.96v32M1474.24-570.96h112M1586.24-570.96v32M1586.24-570.96h106M1692.24-570.96v32M1798.24-570.96v32M1692.24-570.96h106M393.24-538.96v32M393.24-538.96h743M1136.24-538.96v32M1136.24-538.96h118M1254.24-538.96v32M1254.24-538.96h112M1366.24-538.96v32M1366.24-538.96h108M1474.24-538.96v32M1474.24-538.96h112M1586.24-538.96v32M1586.24-538.96h106M1692.24-538.96v32M1798.24-538.96v32M1692.24-538.96h106M393.24-506.96v32M393.24-506.96h743M1136.24-506.96v32M1136.24-506.96h118M1254.24-506.96v32M1254.24-506.96h112M1366.24-506.96v32M1366.24-506.96h108M1474.24-506.96v32M1474.24-506.96h112M1586.24-506.96v32M1586.24-506.96h106M1692.24-506.96v32M1798.24-506.96v32M1692.24-506.96h106M393.24-474.96v32M393.24-474.96h743M1136.24-474.96v32M1136.24-474.96h118M1254.24-474.96v32M1254.24-474.96h112M1366.24-474.96v32M1366.24-474.96h108M1474.24-474.96v32M1474.24-474.96h112M1586.24-474.96v32M1586.24-474.96h106M1692.24-474.96v32M1798.24-474.96v32M1692.24-474.96h106M393.24-442.96v32M393.24-442.96h743M1136.24-442.96v32M1136.24-442.96h118M1254.24-442.96v32M1254.24-442.96h112M1366.24-442.96v32M1366.24-442.96h108M1474.24-442.96v32M1474.24-442.96h112M1586.24-442.96v32M1586.24-442.96h106M1692.24-442.96v32M1798.24-442.96v32M1692.24-442.96h106M393.24-410.96v32M393.24-410.96h743M1136.24-410.96v32M1136.24-410.96h118M1254.24-410.96v32M1254.24-410.96h112M1366.24-410.96v32M1366.24-410.96h108M1474.24-410.96v32M1474.24-410.96h112M1586.24-410.96v32M1586.24-410.96h106M1692.24-410.96v32M1798.24-410.96v32M1692.24-410.96h106M393.24-378.96v32M393.24-378.96h743M1136.24-378.96v32M1136.24-378.96h118M1254.24-378.96v32M1254.24-378.96h112M1366.24-378.96v32M1366.24-378.96h108M1474.24-378.96v32M1474.24-378.96h112M1586.24-378.96v32M1586.24-378.96h106M1692.24-378.96v32M1798.24-378.96v32M1692.24-378.96h106M393.24-346.96v32M393.24-346.96h743M1136.24-346.96v32M1136.24-346.96h118M1254.24-346.96v32M1254.24-346.96h112M1366.24-346.96v32M1366.24-346.96h108M1474.24-346.96v32M1474.24-346.96h112M1586.24-346.96v32M1586.24-346.96h106M1692.24-346.96v32M1798.24-346.96v32M1692.24-346.96h106M393.24-314.96v32M393.24-314.96h743M1136.24-314.96v32M1136.24-314.96h118M1254.24-314.96v32M1254.24-314.96h112M1366.24-314.96v32M1366.24-314.96h108M1474.24-314.96v32M1474.24-314.96h112M1586.24-314.96v32M1586.24-314.96h106M1692.24-314.96v32M1798.24-314.96v32M1692.24-314.96h106M393.24-282.96v32M393.24-282.96h743M1136.24-282.96v32M1136.24-282.96h118M1254.24-282.96v32M1254.24-282.96h112M1366.24-282.96v32M1366.24-282.96h108M1474.24-282.96v32M1474.24-282.96h112M1586.24-282.96v32M1586.24-282.96h106M1692.24-282.96v32M1798.24-282.96v32M1692.24-282.96h106M393.24-250.96v32M393.24-250.96h743M1136.24-250.96v32M1136.24-250.96h118M1254.24-250.96v32M1254.24-250.96h112M1366.24-250.96v32M1366.24-250.96h108M1474.24-250.96v32M1474.24-250.96h112M1586.24-250.96v32M1586.24-250.96h106M1692.24-250.96v32M1798.24-250.96v32M1692.24-250.96h106M393.24-218.96v32M393.24-218.96h743M393.24-186.96h743M1136.24-218.96v32M1136.24-218.96h118M1136.24-186.96h118M1254.24-218.96v32M1254.24-218.96h112M1254.24-186.96h112M1366.24-218.96v32M1366.24-218.96h108M1366.24-186.96h108M1474.24-218.96v32M1474.24-218.96h112M1474.24-186.96h112M1586.24-218.96v32M1586.24-218.96h106M1586.24-186.96h106M1692.24-218.96v32M1798.24-218.96v32M1692.24-218.96h106M1692.24-186.96h106" stroke="#ced4db" stroke-width="2" fill="none"/><use xlink:href="#a" transform="matrix(1,0,0,1,398.2356897057639,-708.9610550070063) translate(144.47500000000002 22.1)"/><use xlink:href="#b" transform="matrix(1,0,0,1,398.2356897057639,-708.9610550070063) translate(185.47500000000002 22.1)"/><use xlink:href="#c" transform="matrix(1,0,0,1,398.2356897057639,-708.9610550070063) translate(237.47500000000002 22.1)"/><use xlink:href="#d" transform="matrix(1,0,0,1,398.2356897057639,-708.9610550070063) translate(318.32500000000005 22.1)"/><use xlink:href="#e" transform="matrix(1,0,0,1,398.2356897057639,-708.9610550070063) translate(356.725 22.1)"/><use xlink:href="#f" transform="matrix(1,0,0,1,398.2356897057639,-708.9610550070063) translate(405.725 22.1)"/><use xlink:href="#g" transform="matrix(1,0,0,1,398.2356897057639,-708.9610550070063) translate(446.675 22.1)"/><use xlink:href="#h" transform="matrix(1,0,0,1,398.2356897057639,-708.9610550070063) translate(465.625 22.1)"/><use xlink:href="#i" transform="matrix(1,0,0,1,1141.235689705764,-708.9610550070063) translate(1.7000000000000028 22.1)"/><use xlink:href="#j" transform="matrix(1,0,0,1,1141.235689705764,-708.9610550070063) translate(50.35 22.1)"/><use xlink:href="#k" transform="matrix(1,0,0,1,1141.235689705764,-708.9610550070063) translate(61.3 22.1)"/><use xlink:href="#l" transform="matrix(1,0,0,1,1259.235689705764,-708.9610550070063) translate(3.0249999999999986 22.1)"/><use xlink:href="#m" transform="matrix(1,0,0,1,1371.235689705764,-708.9610550070063) translate(1.0249999999999986 22.1)"/><use xlink:href="#n" transform="matrix(1,0,0,1,1479.235689705764,-708.9610550070063) translate(3.0249999999999986 22.1)"/><use xlink:href="#o" transform="matrix(1,0,0,1,1591.235689705764,-708.9610550070063) translate(0.02499999999999858 22.1)"/><use xlink:href="#p" transform="matrix(1,0,0,1,1697.235689705764,-708.9610550070063) translate(0.02499999999999858 22.1)"/><use xlink:href="#q" transform="matrix(1,0,0,1,398.2356897057639,-661.9610550070063) translate(277.625 14.6)"/><use xlink:href="#r" transform="matrix(1,0,0,1,398.2356897057639,-661.9610550070063) translate(323.525 14.6)"/><use xlink:href="#s" transform="matrix(1,0,0,1,398.2356897057639,-661.9610550070063) translate(348.525 14.6)"/><use xlink:href="#t" transform="matrix(1,0,0,1,398.2356897057639,-661.9610550070063) translate(392.425 14.6)"/><use xlink:href="#u" transform="matrix(1,0,0,1,398.2356897057639,-661.9610550070063) translate(417.425 14.6)"/><use xlink:href="#v" transform="matrix(1,0,0,1,398.2356897057639,-629.9610550070063) translate(186.55 14.6)"/><use xlink:href="#w" transform="matrix(1,0,0,1,398.2356897057639,-629.9610550070063) translate(259.40000000000003 14.6)"/><use xlink:href="#x" transform="matrix(1,0,0,1,398.2356897057639,-629.9610550070063) translate(307.8 14.6)"/><use xlink:href="#y" transform="matrix(1,0,0,1,398.2356897057639,-629.9610550070063) translate(339.75 14.6)"/><use xlink:href="#z" transform="matrix(1,0,0,1,398.2356897057639,-629.9610550070063) translate(382.75 14.6)"/><use xlink:href="#A" transform="matrix(1,0,0,1,398.2356897057639,-629.9610550070063) translate(417.75 14.6)"/><use xlink:href="#B" transform="matrix(1,0,0,1,398.2356897057639,-629.9610550070063) translate(509.55 14.6)"/><use xlink:href="#C" transform="matrix(1,0,0,1,398.2356897057639,-597.9610550070063) translate(259.95 14.6)"/><use xlink:href="#d" transform="matrix(1,0,0,1,398.2356897057639,-597.9610550070063) translate(332.8 14.6)"/><use xlink:href="#D" transform="matrix(1,0,0,1,398.2356897057639,-597.9610550070063) translate(371.2 14.6)"/><use xlink:href="#E" transform="matrix(1,0,0,1,398.2356897057639,-597.9610550070063) translate(436.1 14.6)"/><g><use xlink:href="#v" transform="matrix(1,0,0,1,398.2356897057639,-565.9610550070063) translate(5.14999999999992 14.6)"/><use xlink:href="#d" transform="matrix(1,0,0,1,398.2356897057639,-565.9610550070063) translate(77.99999999999993 14.6)"/><use xlink:href="#F" transform="matrix(1,0,0,1,398.2356897057639,-565.9610550070063) translate(116.39999999999992 14.6)"/><use xlink:href="#G" transform="matrix(1,0,0,1,398.2356897057639,-565.9610550070063) translate(233.19999999999993 14.6)"/><use xlink:href="#H" transform="matrix(1,0,0,1,398.2356897057639,-565.9610550070063) translate(258.19999999999993 14.6)"/><use xlink:href="#I" transform="matrix(1,0,0,1,398.2356897057639,-565.9610550070063) translate(273.19999999999993 14.6)"/><use xlink:href="#f" transform="matrix(1,0,0,1,398.2356897057639,-565.9610550070063) translate(363.99999999999994 14.6)"/><use xlink:href="#g" transform="matrix(1,0,0,1,398.2356897057639,-565.9610550070063) translate(404.94999999999993 14.6)"/><use xlink:href="#J" transform="matrix(1,0,0,1,398.2356897057639,-565.9610550070063) translate(423.8999999999999 14.6)"/><use xlink:href="#K" transform="matrix(1,0,0,1,398.2356897057639,-565.9610550070063) translate(488.74999999999994 14.6)"/><use xlink:href="#d" transform="matrix(1,0,0,1,398.2356897057639,-565.9610550070063) translate(508.74999999999994 14.6)"/><use xlink:href="#L" transform="matrix(1,0,0,1,398.2356897057639,-565.9610550070063) translate(547.1499999999999 14.6)"/><use xlink:href="#f" transform="matrix(1,0,0,1,398.2356897057639,-565.9610550070063) translate(608.0999999999999 14.6)"/><use xlink:href="#g" transform="matrix(1,0,0,1,398.2356897057639,-565.9610550070063) translate(649.05 14.6)"/><use xlink:href="#M" transform="matrix(1,0,0,1,398.2356897057639,-565.9610550070063) translate(668 14.6)"/></g><g><use xlink:href="#v" transform="matrix(1,0,0,1,398.2356897057639,-533.9610550070063) translate(165.925 14.6)"/><use xlink:href="#w" transform="matrix(1,0,0,1,398.2356897057639,-533.9610550070063) translate(238.77500000000003 14.6)"/><use xlink:href="#N" transform="matrix(1,0,0,1,398.2356897057639,-533.9610550070063) translate(287.175 14.6)"/><use xlink:href="#O" transform="matrix(1,0,0,1,398.2356897057639,-533.9610550070063) translate(381.07500000000005 14.6)"/><use xlink:href="#f" transform="matrix(1,0,0,1,398.2356897057639,-533.9610550070063) translate(441.975 14.6)"/><use xlink:href="#P" transform="matrix(1,0,0,1,398.2356897057639,-533.9610550070063) translate(482.925 14.6)"/></g><g><use xlink:href="#Q" transform="matrix(1,0,0,1,398.2356897057639,-501.9610550070063) translate(192.5 14.6)"/><use xlink:href="#K" transform="matrix(1,0,0,1,398.2356897057639,-501.9610550070063) translate(279.4 14.6)"/><use xlink:href="#R" transform="matrix(1,0,0,1,398.2356897057639,-501.9610550070063) translate(299.4 14.6)"/><use xlink:href="#d" transform="matrix(1,0,0,1,398.2356897057639,-501.9610550070063) translate(407.25 14.6)"/><use xlink:href="#S" transform="matrix(1,0,0,1,398.2356897057639,-501.9610550070063) translate(445.65 14.6)"/><use xlink:href="#T" transform="matrix(1,0,0,1,398.2356897057639,-501.9610550070063) translate(507.55 14.6)"/></g><g><use xlink:href="#U" transform="matrix(1,0,0,1,398.2356897057639,-469.9610550070063) translate(171.95 14.6)"/><use xlink:href="#G" transform="matrix(1,0,0,1,398.2356897057639,-469.9610550070063) translate(283.75 14.6)"/><use xlink:href="#V" transform="matrix(1,0,0,1,398.2356897057639,-469.9610550070063) translate(308.75 14.6)"/><use xlink:href="#f" transform="matrix(1,0,0,1,398.2356897057639,-469.9610550070063) translate(398.25 14.6)"/><use xlink:href="#g" transform="matrix(1,0,0,1,398.2356897057639,-469.9610550070063) translate(439.2 14.6)"/><use xlink:href="#W" transform="matrix(1,0,0,1,398.2356897057639,-469.9610550070063) translate(458.15 14.6)"/></g><g><use xlink:href="#v" transform="matrix(1,0,0,1,398.2356897057639,-437.9610550070063) translate(235.67499999999998 14.6)"/><use xlink:href="#X" transform="matrix(1,0,0,1,398.2356897057639,-437.9610550070063) translate(308.525 14.6)"/><use xlink:href="#Y" transform="matrix(1,0,0,1,398.2356897057639,-437.9610550070063) translate(333.525 14.6)"/><use xlink:href="#G" transform="matrix(1,0,0,1,398.2356897057639,-437.9610550070063) translate(428.32500000000005 14.6)"/><use xlink:href="#Z" transform="matrix(1,0,0,1,398.2356897057639,-437.9610550070063) translate(453.32500000000005 14.6)"/></g><g><use xlink:href="#aa" transform="matrix(1,0,0,1,398.2356897057639,-405.9610550070063) translate(169.70000000000002 14.6)"/><use xlink:href="#ab" transform="matrix(1,0,0,1,398.2356897057639,-405.9610550070063) translate(267.55 14.6)"/><use xlink:href="#ac" transform="matrix(1,0,0,1,398.2356897057639,-405.9610550070063) translate(301.55000000000007 14.6)"/><use xlink:href="#ad" transform="matrix(1,0,0,1,398.2356897057639,-405.9610550070063) translate(355.55000000000007 14.6)"/><use xlink:href="#f" transform="matrix(1,0,0,1,398.2356897057639,-405.9610550070063) translate(393.5 14.6)"/><use xlink:href="#g" transform="matrix(1,0,0,1,398.2356897057639,-405.9610550070063) translate(434.45000000000005 14.6)"/><use xlink:href="#ae" transform="matrix(1,0,0,1,398.2356897057639,-405.9610550070063) translate(453.4 14.6)"/><use xlink:href="#af" transform="matrix(1,0,0,1,398.2356897057639,-405.9610550070063) translate(517.35 14.6)"/></g><g><use xlink:href="#ag" transform="matrix(1,0,0,1,398.2356897057639,-373.9610550070063) translate(187.17499999999998 14.6)"/><use xlink:href="#K" transform="matrix(1,0,0,1,398.2356897057639,-373.9610550070063) translate(279.075 14.6)"/><use xlink:href="#ah" transform="matrix(1,0,0,1,398.2356897057639,-373.9610550070063) translate(299.075 14.6)"/><use xlink:href="#ai" transform="matrix(1,0,0,1,398.2356897057639,-373.9610550070063) translate(378.025 14.6)"/><use xlink:href="#aj" transform="matrix(1,0,0,1,398.2356897057639,-373.9610550070063) translate(403.025 14.6)"/><use xlink:href="#ak" transform="matrix(1,0,0,1,398.2356897057639,-373.9610550070063) translate(484.975 14.6)"/><use xlink:href="#al" transform="matrix(1,0,0,1,398.2356897057639,-373.9610550070063) translate(499.975 14.6)"/></g><g><use xlink:href="#am" transform="matrix(1,0,0,1,398.2356897057639,-341.9610550070063) translate(135.75000000000003 14.6)"/><use xlink:href="#ab" transform="matrix(1,0,0,1,398.2356897057639,-341.9610550070063) translate(263.55000000000007 14.6)"/><use xlink:href="#aj" transform="matrix(1,0,0,1,398.2356897057639,-341.9610550070063) translate(297.55000000000007 14.6)"/><use xlink:href="#an" transform="matrix(1,0,0,1,398.2356897057639,-341.9610550070063) translate(379.5 14.6)"/><use xlink:href="#ao" transform="matrix(1,0,0,1,398.2356897057639,-341.9610550070063) translate(424.4 14.6)"/><use xlink:href="#g" transform="matrix(1,0,0,1,398.2356897057639,-341.9610550070063) translate(468.4 14.6)"/><use xlink:href="#ae" transform="matrix(1,0,0,1,398.2356897057639,-341.9610550070063) translate(487.35 14.6)"/><use xlink:href="#af" transform="matrix(1,0,0,1,398.2356897057639,-341.9610550070063) translate(551.3 14.6)"/></g><g><use xlink:href="#ap" transform="matrix(1,0,0,1,398.2356897057639,-309.9610550070063) translate(250.39999999999998 14.6)"/><use xlink:href="#X" transform="matrix(1,0,0,1,398.2356897057639,-309.9610550070063) translate(336.29999999999995 14.6)"/><use xlink:href="#aq" transform="matrix(1,0,0,1,398.2356897057639,-309.9610550070063) translate(361.29999999999995 14.6)"/><use xlink:href="#ar" transform="matrix(1,0,0,1,398.2356897057639,-309.9610550070063) translate(424.2 14.6)"/></g><g><use xlink:href="#am" transform="matrix(1,0,0,1,398.2356897057639,-277.9610550070063) translate(140.525 14.6)"/><use xlink:href="#X" transform="matrix(1,0,0,1,398.2356897057639,-277.9610550070063) translate(268.32500000000005 14.6)"/><use xlink:href="#aq" transform="matrix(1,0,0,1,398.2356897057639,-277.9610550070063) translate(293.32500000000005 14.6)"/><use xlink:href="#as" transform="matrix(1,0,0,1,398.2356897057639,-277.9610550070063) translate(356.225 14.6)"/><use xlink:href="#ao" transform="matrix(1,0,0,1,398.2356897057639,-277.9610550070063) translate(419.625 14.6)"/><use xlink:href="#g" transform="matrix(1,0,0,1,398.2356897057639,-277.9610550070063) translate(463.625 14.6)"/><use xlink:href="#ae" transform="matrix(1,0,0,1,398.2356897057639,-277.9610550070063) translate(482.57500000000005 14.6)"/><use xlink:href="#af" transform="matrix(1,0,0,1,398.2356897057639,-277.9610550070063) translate(546.525 14.6)"/></g><g><use xlink:href="#ap" transform="matrix(1,0,0,1,398.2356897057639,-245.96105500700628) translate(150.875 14.6)"/><use xlink:href="#d" transform="matrix(1,0,0,1,398.2356897057639,-245.96105500700628) translate(236.775 14.6)"/><use xlink:href="#ae" transform="matrix(1,0,0,1,398.2356897057639,-245.96105500700628) translate(275.175 14.6)"/><use xlink:href="#at" transform="matrix(1,0,0,1,398.2356897057639,-245.96105500700628) translate(339.125 14.6)"/><use xlink:href="#G" transform="matrix(1,0,0,1,398.2356897057639,-245.96105500700628) translate(390.075 14.6)"/><use xlink:href="#au" transform="matrix(1,0,0,1,398.2356897057639,-245.96105500700628) translate(415.075 14.6)"/><use xlink:href="#T" transform="matrix(1,0,0,1,398.2356897057639,-245.96105500700628) translate(549.175 14.6)"/></g><g><use xlink:href="#am" transform="matrix(1,0,0,1,398.2356897057639,-213.96105500700628) translate(136.625 14.6)"/><use xlink:href="#X" transform="matrix(1,0,0,1,398.2356897057639,-213.96105500700628) translate(264.425 14.6)"/><use xlink:href="#ae" transform="matrix(1,0,0,1,398.2356897057639,-213.96105500700628) translate(289.425 14.6)"/><use xlink:href="#at" transform="matrix(1,0,0,1,398.2356897057639,-213.96105500700628) translate(353.375 14.6)"/><use xlink:href="#G" transform="matrix(1,0,0,1,398.2356897057639,-213.96105500700628) translate(404.325 14.6)"/><use xlink:href="#au" transform="matrix(1,0,0,1,398.2356897057639,-213.96105500700628) translate(429.325 14.6)"/><use xlink:href="#T" transform="matrix(1,0,0,1,398.2356897057639,-213.96105500700628) translate(563.425 14.6)"/></g><path d="M1820.63-701.96a12 12 0 0 1 12-12h161.34a12 12 0 0 1 12 12v287.56a12 12 0 0 1-12 12h-161.34a12 12 0 0 1-12-12z" stroke="#000" stroke-width="3" fill="#fff"/><path d="M1820.63-633.52h185.34" stroke="#000" stroke-width="3" fill="none"/><g><use xlink:href="#av" transform="matrix(1,0,0,1,1844.633096434879,-697.9610550070063) translate(0 17.77777777777778)"/><use xlink:href="#aw" transform="matrix(1,0,0,1,1844.633096434879,-697.9610550070063) translate(98.58024691358024 17.77777777777778)"/><use xlink:href="#ax" transform="matrix(1,0,0,1,1844.633096434879,-697.9610550070063) translate(0 44.44444444444444)"/></g><path d="M1845.13-601.9a8 8 0 0 1 8-8h117.34a8 8 0 0 1 8 8v29.54a8 8 0 0 1-8 8h-117.34a8 8 0 0 1-8-8z" stroke="#333" fill="#ffd9d9"/><g><use xlink:href="#ay" transform="matrix(1,0,0,1,1851.7997631106407,-607.6282772231161) translate(19.549999999999997 24.65)"/></g><path d="M1845.13-533.7a8 8 0 0 1 8-8h117.34a8 8 0 0 1 8 8v25.34a8 8 0 0 1-8 8h-117.34a8 8 0 0 1-8-8z" stroke="#333" fill="#ffdda6"/><g><use xlink:href="#az" transform="matrix(1,0,0,1,1851.7997631106407,-539.627721673673) translate(41.525 21.525)"/></g><path d="M1845.13-463.03a8 8 0 0 1 8-8h117.34a8 8 0 0 1 8 8v28a8 8 0 0 1-8 8h-117.34a8 8 0 0 1-8-8z" stroke="#333" fill="#c3f7c8"/><g><use xlink:href="#aA" transform="matrix(1,0,0,1,1851.7997631106407,-468.827721673673) translate(38.2 24.4)"/></g><defs><path d="M185-189c-5-48-123-54-124 2 14 75 158 14 163 119 3 78-121 87-175 55-17-10-28-26-33-46l33-7c5 56 141 63 141-1 0-78-155-14-162-118-5-82 145-84 179-34 5 7 8 16 11 25" id="aB"/><path d="M205 0l-28-72H64L36 0H1l101-248h38L239 0h-34zm-38-99l-47-123c-12 45-31 82-46 123h93" id="aC"/><path d="M30 0v-248h187v28H63v79h144v27H63v87h162V0H30" id="aD"/><g id="a"><use transform="matrix(0.05,0,0,0.05,0,0)" xlink:href="#aB"/><use transform="matrix(0.05,0,0,0.05,12,0)" xlink:href="#aC"/><use transform="matrix(0.05,0,0,0.05,24,0)" xlink:href="#aD"/></g><path d="M27 0v-27h64v-190l-56 39v-29l58-41h29v221h61V0H27" id="aE"/><path d="M33 0v-38h34V0H33" id="aF"/><path d="M101-251c68 0 85 55 85 127S166 4 100 4C33 4 14-52 14-124c0-73 17-127 87-127zm-1 229c47 0 54-49 54-102s-4-102-53-102c-51 0-55 48-55 102 0 53 5 102 54 102" id="aG"/><path d="M126-127c33 6 58 20 58 59 0 88-139 92-164 29-3-8-5-16-6-25l32-3c6 27 21 44 54 44 32 0 52-15 52-46 0-38-36-46-79-43v-28c39 1 72-4 72-42 0-27-17-43-46-43-28 0-47 15-49 41l-32-3c6-42 35-63 81-64 48-1 79 21 79 65 0 36-21 52-52 59" id="aH"/><g id="b"><use transform="matrix(0.05,0,0,0.05,0,0)" xlink:href="#aB"/><use transform="matrix(0.05,0,0,0.05,12,0)" xlink:href="#aE"/><use transform="matrix(0.05,0,0,0.05,22,0)" xlink:href="#aF"/><use transform="matrix(0.05,0,0,0.05,27,0)" xlink:href="#aG"/><use transform="matrix(0.05,0,0,0.05,37,0)" xlink:href="#aH"/></g><path d="M33 0v-248h34V0H33" id="aI"/><path d="M135-143c-3-34-86-38-87 0 15 53 115 12 119 90S17 21 10-45l28-5c4 36 97 45 98 0-10-56-113-15-118-90-4-57 82-63 122-42 12 7 21 19 24 35" id="aJ"/><path d="M59-47c-2 24 18 29 38 22v24C64 9 27 4 27-40v-127H5v-23h24l9-43h21v43h35v23H59v120" id="aK"/><path d="M141-36C126-15 110 5 73 4 37 3 15-17 15-53c-1-64 63-63 125-63 3-35-9-54-41-54-24 1-41 7-42 31l-33-3c5-37 33-52 76-52 45 0 72 20 72 64v82c-1 20 7 32 28 27v20c-31 9-61-2-59-35zM48-53c0 20 12 33 32 33 41-3 63-29 60-74-43 2-92-5-92 41" id="aL"/><path d="M24 0v-261h32V0H24" id="aM"/><path d="M24-231v-30h32v30H24zM24 0v-190h32V0H24" id="aN"/><path d="M100-194c62-1 85 37 85 99 1 63-27 99-86 99S16-35 15-95c0-66 28-99 85-99zM99-20c44 1 53-31 53-75 0-43-8-75-51-75s-53 32-53 75 10 74 51 75" id="aO"/><path d="M117-194c89-4 53 116 60 194h-32v-121c0-31-8-49-39-48C34-167 62-67 57 0H25l-1-190h30c1 10-1 24 2 32 11-22 29-35 61-36" id="aP"/><g id="c"><use transform="matrix(0.05,0,0,0.05,0,0)" xlink:href="#aI"/><use transform="matrix(0.05,0,0,0.05,5,0)" xlink:href="#aJ"/><use transform="matrix(0.05,0,0,0.05,14,0)" xlink:href="#aK"/><use transform="matrix(0.05,0,0,0.05,19,0)" xlink:href="#aL"/><use transform="matrix(0.05,0,0,0.05,29,0)" xlink:href="#aM"/><use transform="matrix(0.05,0,0,0.05,32.95,0)" xlink:href="#aM"/><use transform="matrix(0.05,0,0,0.05,36.900000000000006,0)" xlink:href="#aL"/><use transform="matrix(0.05,0,0,0.05,46.900000000000006,0)" xlink:href="#aK"/><use transform="matrix(0.05,0,0,0.05,51.900000000000006,0)" xlink:href="#aN"/><use transform="matrix(0.05,0,0,0.05,55.85,0)" xlink:href="#aO"/><use transform="matrix(0.05,0,0,0.05,65.85000000000001,0)" xlink:href="#aP"/></g><path d="M85-194c31 0 48 13 60 33l-1-100h32l1 261h-30c-2-10 0-23-3-31C134-8 116 4 85 4 32 4 16-35 15-94c0-66 23-100 70-100zm9 24c-40 0-46 34-46 75 0 40 6 74 45 74 42 0 51-32 51-76 0-42-9-74-50-73" id="aQ"/><path d="M47-170H22l-4-78h33" id="aR"/><path d="M84 4C-5 8 30-112 23-190h32v120c0 31 7 50 39 49 72-2 45-101 50-169h31l1 190h-30c-1-10 1-25-2-33-11 22-28 36-60 37" id="aS"/><g id="d"><use transform="matrix(0.05,0,0,0.05,0,0)" xlink:href="#aQ"/><use transform="matrix(0.05,0,0,0.05,10,0)" xlink:href="#aR"/><use transform="matrix(0.05,0,0,0.05,13.4,0)" xlink:href="#aS"/><use transform="matrix(0.05,0,0,0.05,23.4,0)" xlink:href="#aP"/></g><path d="M115-194c55 1 70 41 70 98S169 2 115 4C84 4 66-9 55-30l1 105H24l-1-265h31l2 30c10-21 28-34 59-34zm-8 174c40 0 45-34 45-75s-6-73-45-74c-42 0-51 32-51 76 0 43 10 73 51 73" id="aT"/><path d="M100-194c63 0 86 42 84 106H49c0 40 14 67 53 68 26 1 43-12 49-29l28 8c-11 28-37 45-77 45C44 4 14-33 15-96c1-61 26-98 85-98zm52 81c6-60-76-77-97-28-3 7-6 17-6 28h103" id="aU"/><g id="e"><use transform="matrix(0.05,0,0,0.05,0,0)" xlink:href="#aT"/><use transform="matrix(0.05,0,0,0.05,10,0)" xlink:href="#aO"/><use transform="matrix(0.05,0,0,0.05,20,0)" xlink:href="#aJ"/><use transform="matrix(0.05,0,0,0.05,29,0)" xlink:href="#aK"/><use transform="matrix(0.05,0,0,0.05,34,0)" xlink:href="#aU"/></g><path d="M114-163C36-179 61-72 57 0H25l-1-190h30c1 12-1 29 2 39 6-27 23-49 58-41v29" id="aV"/><g id="f"><use transform="matrix(0.05,0,0,0.05,0,0)" xlink:href="#aT"/><use transform="matrix(0.05,0,0,0.05,10,0)" xlink:href="#aO"/><use transform="matrix(0.05,0,0,0.05,20,0)" xlink:href="#aS"/><use transform="matrix(0.05,0,0,0.05,30,0)" xlink:href="#aV"/></g><g id="g"><use transform="matrix(0.05,0,0,0.05,0,0)" xlink:href="#aM"/><use transform="matrix(0.05,0,0,0.05,3.95,0)" xlink:href="#aU"/></g><path d="M100-194c63 0 86 42 84 106H49c0 40 14 67 53 68 26 1 43-12 49-29l28 8c-11 28-37 45-77 45C44 4 14-33 15-96c1-61 26-98 85-98zm52 81c6-60-76-77-97-28-3 7-6 17-6 28h103zm-74-98c8-23 27-35 38-54h36v5l-58 49H78" id="aW"/><path d="M108 0H70L1-190h34L89-25l56-165h34" id="aX"/><path d="M210-169c-67 3-38 105-44 169h-31v-121c0-29-5-50-35-48C34-165 62-65 56 0H25l-1-190h30c1 10-1 24 2 32 10-44 99-50 107 0 11-21 27-35 58-36 85-2 47 119 55 194h-31v-121c0-29-5-49-35-48" id="aY"/><g id="h"><use transform="matrix(0.05,0,0,0.05,0,0)" xlink:href="#aQ"/><use transform="matrix(0.05,0,0,0.05,10,0)" xlink:href="#aW"/><use transform="matrix(0.05,0,0,0.05,20,0)" xlink:href="#aX"/><use transform="matrix(0.05,0,0,0.05,29,0)" xlink:href="#aU"/><use transform="matrix(0.05,0,0,0.05,39,0)" xlink:href="#aM"/><use transform="matrix(0.05,0,0,0.05,42.95,0)" xlink:href="#aO"/><use transform="matrix(0.05,0,0,0.05,52.95,0)" xlink:href="#aT"/><use transform="matrix(0.05,0,0,0.05,62.95,0)" xlink:href="#aT"/><use transform="matrix(0.05,0,0,0.05,72.95,0)" xlink:href="#aU"/><use transform="matrix(0.05,0,0,0.05,82.95,0)" xlink:href="#aY"/><use transform="matrix(0.05,0,0,0.05,97.9,0)" xlink:href="#aU"/><use transform="matrix(0.05,0,0,0.05,107.9,0)" xlink:href="#aP"/><use transform="matrix(0.05,0,0,0.05,117.9,0)" xlink:href="#aK"/></g><path d="M101-251c82-7 93 87 43 132L82-64C71-53 59-42 53-27h129V0H18c2-99 128-94 128-182 0-28-16-43-45-43s-46 15-49 41l-32-3c6-41 34-60 81-64" id="aZ"/><path d="M99-251c64 0 84 50 84 122C183-37 130 33 47-8c-14-7-20-23-25-40l30-5c6 39 69 39 84 7 9-19 16-44 16-74-10 22-31 35-62 35-49 0-73-33-73-83 0-54 28-83 82-83zm-1 141c31-1 51-18 51-49 0-36-14-67-51-67-34 0-49 23-49 58 0 34 15 58 49 58" id="ba"/><path d="M0 4l72-265h28L28 4H0" id="bb"/><g id="i"><use transform="matrix(0.05,0,0,0.05,0,0)" xlink:href="#aZ"/><use transform="matrix(0.05,0,0,0.05,10,0)" xlink:href="#ba"/><use transform="matrix(0.05,0,0,0.05,20,0)" xlink:href="#bb"/><use transform="matrix(0.05,0,0,0.05,25,0)" xlink:href="#aE"/><use transform="matrix(0.05,0,0,0.05,33.65,0)" xlink:href="#aE"/></g><path d="M16-82v-28h88v28H16" id="bc"/><use transform="matrix(0.05,0,0,0.05,0,0)" xlink:href="#bc" id="j"/><path d="M110-160c48 1 74 30 74 79 0 53-28 85-80 85-65 0-83-55-86-122-5-90 50-162 133-122 14 7 22 21 27 39l-31 6c-5-40-67-38-82-6-9 19-15 44-15 74 11-20 30-34 60-33zm-7 138c34 0 49-23 49-58s-16-56-50-56c-29 0-50 16-49 49 1 36 15 65 50 65" id="bd"/><g id="k"><use transform="matrix(0.05,0,0,0.05,0,0)" xlink:href="#aG"/><use transform="matrix(0.05,0,0,0.05,10,0)" xlink:href="#bd"/><use transform="matrix(0.05,0,0,0.05,20,0)" xlink:href="#bb"/><use transform="matrix(0.05,0,0,0.05,25,0)" xlink:href="#aE"/><use transform="matrix(0.05,0,0,0.05,35,0)" xlink:href="#aZ"/></g><path d="M64 0c3-98 48-159 88-221H18v-27h164v26C143-157 98-101 97 0H64" id="be"/><g id="l"><use transform="matrix(0.05,0,0,0.05,0,0)" xlink:href="#aG"/><use transform="matrix(0.05,0,0,0.05,10,0)" xlink:href="#be"/><use transform="matrix(0.05,0,0,0.05,20,0)" xlink:href="#bb"/><use transform="matrix(0.05,0,0,0.05,25,0)" xlink:href="#aE"/><use transform="matrix(0.05,0,0,0.05,35,0)" xlink:href="#aZ"/><use transform="matrix(0.05,0,0,0.05,45,0)" xlink:href="#bc"/><use transform="matrix(0.05,0,0,0.05,50.95,0)" xlink:href="#aE"/><use transform="matrix(0.05,0,0,0.05,60.95,0)" xlink:href="#aG"/><use transform="matrix(0.05,0,0,0.05,70.95,0)" xlink:href="#bb"/><use transform="matrix(0.05,0,0,0.05,75.95,0)" xlink:href="#aE"/><use transform="matrix(0.05,0,0,0.05,85.95,0)" xlink:href="#aZ"/></g><path d="M54-142c48-35 137-8 131 61C196 18 31 33 14-55l32-4c7 23 22 37 52 37 35-1 51-22 54-58 4-55-73-65-99-34H22l8-134h141v27H59" id="bf"/><g id="m"><use transform="matrix(0.05,0,0,0.05,0,0)" xlink:href="#aE"/><use transform="matrix(0.05,0,0,0.05,10,0)" xlink:href="#aG"/><use transform="matrix(0.05,0,0,0.05,20,0)" xlink:href="#bb"/><use transform="matrix(0.05,0,0,0.05,25,0)" xlink:href="#aE"/><use transform="matrix(0.05,0,0,0.05,35,0)" xlink:href="#aZ"/><use transform="matrix(0.05,0,0,0.05,45,0)" xlink:href="#bc"/><use transform="matrix(0.05,0,0,0.05,50.95,0)" xlink:href="#aE"/><use transform="matrix(0.05,0,0,0.05,60.95,0)" xlink:href="#bf"/><use transform="matrix(0.05,0,0,0.05,70.95,0)" xlink:href="#bb"/><use transform="matrix(0.05,0,0,0.05,75.95,0)" xlink:href="#aE"/><use transform="matrix(0.05,0,0,0.05,85.95,0)" xlink:href="#aZ"/></g><g id="n"><use transform="matrix(0.05,0,0,0.05,0,0)" xlink:href="#aE"/><use transform="matrix(0.05,0,0,0.05,10,0)" xlink:href="#bd"/><use transform="matrix(0.05,0,0,0.05,20,0)" xlink:href="#bb"/><use transform="matrix(0.05,0,0,0.05,25,0)" xlink:href="#aE"/><use transform="matrix(0.05,0,0,0.05,35,0)" xlink:href="#aZ"/><use transform="matrix(0.05,0,0,0.05,45,0)" xlink:href="#bc"/><use transform="matrix(0.05,0,0,0.05,50.95,0)" xlink:href="#aZ"/><use transform="matrix(0.05,0,0,0.05,60.95,0)" xlink:href="#aZ"/><use transform="matrix(0.05,0,0,0.05,70.95,0)" xlink:href="#bb"/><use transform="matrix(0.05,0,0,0.05,75.95,0)" xlink:href="#aE"/><use transform="matrix(0.05,0,0,0.05,85.95,0)" xlink:href="#aZ"/></g><path d="M134-131c28 9 52 24 51 62-1 50-34 73-85 73S17-19 16-69c0-36 21-54 49-61-75-25-45-126 34-121 46 3 78 18 79 63 0 33-17 51-44 57zm-34-11c31 1 46-15 46-44 0-28-17-43-47-42-29 0-46 13-45 42 1 28 16 44 46 44zm1 122c35 0 51-18 51-52 0-30-18-46-53-46-33 0-51 17-51 47 0 34 19 51 53 51" id="bg"/><g id="o"><use transform="matrix(0.05,0,0,0.05,0,0)" xlink:href="#aZ"/><use transform="matrix(0.05,0,0,0.05,10,0)" xlink:href="#bg"/><use transform="matrix(0.05,0,0,0.05,20,0)" xlink:href="#bb"/><use transform="matrix(0.05,0,0,0.05,25,0)" xlink:href="#aE"/><use transform="matrix(0.05,0,0,0.05,35,0)" xlink:href="#aZ"/><use transform="matrix(0.05,0,0,0.05,45,0)" xlink:href="#bc"/><use transform="matrix(0.05,0,0,0.05,50.95,0)" xlink:href="#aG"/><use transform="matrix(0.05,0,0,0.05,60.95,0)" xlink:href="#aH"/><use transform="matrix(0.05,0,0,0.05,70.95,0)" xlink:href="#bb"/><use transform="matrix(0.05,0,0,0.05,75.95,0)" xlink:href="#aG"/><use transform="matrix(0.05,0,0,0.05,85.95,0)" xlink:href="#aE"/></g><path d="M155-56V0h-30v-56H8v-25l114-167h33v167h35v25h-35zm-30-156c-27 46-58 90-88 131h88v-131" id="bh"/><g id="p"><use transform="matrix(0.05,0,0,0.05,0,0)" xlink:href="#aG"/><use transform="matrix(0.05,0,0,0.05,10,0)" xlink:href="#bh"/><use transform="matrix(0.05,0,0,0.05,20,0)" xlink:href="#bb"/><use transform="matrix(0.05,0,0,0.05,25,0)" xlink:href="#aG"/><use transform="matrix(0.05,0,0,0.05,35,0)" xlink:href="#aE"/><use transform="matrix(0.05,0,0,0.05,45,0)" xlink:href="#bc"/><use transform="matrix(0.05,0,0,0.05,50.95,0)" xlink:href="#aE"/><use transform="matrix(0.05,0,0,0.05,60.95,0)" xlink:href="#aG"/><use transform="matrix(0.05,0,0,0.05,70.95,0)" xlink:href="#bb"/><use transform="matrix(0.05,0,0,0.05,75.95,0)" xlink:href="#aG"/><use transform="matrix(0.05,0,0,0.05,85.95,0)" xlink:href="#aE"/></g><path d="M30-248c87 1 191-15 191 75 0 78-77 80-158 76V0H30v-248zm33 125c57 0 124 11 124-50 0-59-68-47-124-48v98" id="bi"/><g id="q"><use transform="matrix(0.05,0,0,0.05,0,0)" xlink:href="#bi"/><use transform="matrix(0.05,0,0,0.05,12,0)" xlink:href="#aV"/><use transform="matrix(0.05,0,0,0.05,17.95,0)" xlink:href="#aN"/><use transform="matrix(0.05,0,0,0.05,21.9,0)" xlink:href="#aJ"/><use transform="matrix(0.05,0,0,0.05,30.899999999999995,0)" xlink:href="#aU"/></g><g id="r"><use transform="matrix(0.05,0,0,0.05,0,0)" xlink:href="#aU"/><use transform="matrix(0.05,0,0,0.05,10,0)" xlink:href="#aP"/></g><g id="s"><use transform="matrix(0.05,0,0,0.05,0,0)" xlink:href="#aY"/><use transform="matrix(0.05,0,0,0.05,14.950000000000001,0)" xlink:href="#aL"/><use transform="matrix(0.05,0,0,0.05,24.950000000000003,0)" xlink:href="#aN"/><use transform="matrix(0.05,0,0,0.05,28.900000000000002,0)" xlink:href="#aP"/></g><g id="t"><use transform="matrix(0.05,0,0,0.05,0,0)" xlink:href="#aQ"/><use transform="matrix(0.05,0,0,0.05,10,0)" xlink:href="#aS"/></g><path d="M24-231v-30h32v30H24zM-9 49c24 4 33-6 33-30v-209h32V24c2 40-23 58-65 49V49" id="bj"/><g id="u"><use transform="matrix(0.05,0,0,0.05,0,0)" xlink:href="#aJ"/><use transform="matrix(0.05,0,0,0.05,9,0)" xlink:href="#aS"/><use transform="matrix(0.05,0,0,0.05,19,0)" xlink:href="#bj"/><use transform="matrix(0.05,0,0,0.05,22.95,0)" xlink:href="#aU"/><use transform="matrix(0.05,0,0,0.05,32.95,0)" xlink:href="#aK"/></g><path d="M212-179c-10-28-35-45-73-45-59 0-87 40-87 99 0 60 29 101 89 101 43 0 62-24 78-52l27 14C228-24 195 4 139 4 59 4 22-46 18-125c-6-104 99-153 187-111 19 9 31 26 39 46" id="bk"/><g id="v"><use transform="matrix(0.05,0,0,0.05,0,0)" xlink:href="#bk"/><use transform="matrix(0.05,0,0,0.05,12.950000000000001,0)" xlink:href="#aV"/><use transform="matrix(0.05,0,0,0.05,18.900000000000002,0)" xlink:href="#aU"/><use transform="matrix(0.05,0,0,0.05,28.900000000000002,0)" xlink:href="#aL"/><use transform="matrix(0.05,0,0,0.05,38.900000000000006,0)" xlink:href="#aK"/><use transform="matrix(0.05,0,0,0.05,43.900000000000006,0)" xlink:href="#aN"/><use transform="matrix(0.05,0,0,0.05,47.85000000000001,0)" xlink:href="#aO"/><use transform="matrix(0.05,0,0,0.05,57.85,0)" xlink:href="#aP"/></g><g id="w"><use transform="matrix(0.05,0,0,0.05,0,0)" xlink:href="#aQ"/><use transform="matrix(0.05,0,0,0.05,10,0)" xlink:href="#aR"/><use transform="matrix(0.05,0,0,0.05,13.4,0)" xlink:href="#aS"/><use transform="matrix(0.05,0,0,0.05,23.4,0)" xlink:href="#aP"/><use transform="matrix(0.05,0,0,0.05,33.4,0)" xlink:href="#aU"/></g><path d="M137 0h-34L2-248h35l83 218 83-218h36" id="bl"/><path d="M240 0l2-218c-23 76-54 145-80 218h-23L58-218 59 0H30v-248h44l77 211c21-75 51-140 76-211h43V0h-30" id="bm"/><g id="x"><use transform="matrix(0.05,0,0,0.05,0,0)" xlink:href="#bl"/><use transform="matrix(0.05,0,0,0.05,12,0)" xlink:href="#bm"/></g><path d="M96-169c-40 0-48 33-48 73s9 75 48 75c24 0 41-14 43-38l32 2c-6 37-31 61-74 61-59 0-76-41-82-99-10-93 101-131 147-64 4 7 5 14 7 22l-32 3c-4-21-16-35-41-35" id="bn"/><g id="y"><use transform="matrix(0.05,0,0,0.05,0,0)" xlink:href="#aL"/><use transform="matrix(0.05,0,0,0.05,10,0)" xlink:href="#aX"/><use transform="matrix(0.05,0,0,0.05,19,0)" xlink:href="#aU"/><use transform="matrix(0.05,0,0,0.05,29,0)" xlink:href="#bn"/></g><g id="z"><use transform="matrix(0.05,0,0,0.05,0,0)" xlink:href="#aS"/><use transform="matrix(0.05,0,0,0.05,10,0)" xlink:href="#aP"/><use transform="matrix(0.05,0,0,0.05,20,0)" xlink:href="#aU"/></g><path d="M115-194c53 0 69 39 70 98 0 66-23 100-70 100C84 3 66-7 56-30L54 0H23l1-261h32v101c10-23 28-34 59-34zm-8 174c40 0 45-34 45-75 0-40-5-75-45-74-42 0-51 32-51 76 0 43 10 73 51 73" id="bo"/><g id="A"><use transform="matrix(0.05,0,0,0.05,0,0)" xlink:href="#aQ"/><use transform="matrix(0.05,0,0,0.05,10,0)" xlink:href="#aN"/><use transform="matrix(0.05,0,0,0.05,13.949999999999998,0)" xlink:href="#aJ"/><use transform="matrix(0.05,0,0,0.05,22.95,0)" xlink:href="#aK"/><use transform="matrix(0.05,0,0,0.05,27.950000000000003,0)" xlink:href="#aV"/><use transform="matrix(0.05,0,0,0.05,33.9,0)" xlink:href="#aN"/><use transform="matrix(0.05,0,0,0.05,37.85,0)" xlink:href="#bo"/><use transform="matrix(0.05,0,0,0.05,47.85,0)" xlink:href="#aS"/><use transform="matrix(0.05,0,0,0.05,57.85,0)" xlink:href="#aK"/><use transform="matrix(0.05,0,0,0.05,62.85,0)" xlink:href="#aN"/><use transform="matrix(0.05,0,0,0.05,66.8,0)" xlink:href="#aO"/><use transform="matrix(0.05,0,0,0.05,76.8,0)" xlink:href="#aP"/></g><path d="M141 0L90-78 38 0H4l68-98-65-92h35l48 74 47-74h35l-64 92 68 98h-35" id="bp"/><g id="B"><use transform="matrix(0.05,0,0,0.05,0,0)" xlink:href="#aM"/><use transform="matrix(0.05,0,0,0.05,3.95,0)" xlink:href="#aN"/><use transform="matrix(0.05,0,0,0.05,7.9,0)" xlink:href="#aP"/><use transform="matrix(0.05,0,0,0.05,17.9,0)" xlink:href="#aS"/><use transform="matrix(0.05,0,0,0.05,27.899999999999995,0)" xlink:href="#bp"/></g><g id="C"><use transform="matrix(0.05,0,0,0.05,0,0)" xlink:href="#bk"/><use transform="matrix(0.05,0,0,0.05,12.950000000000001,0)" xlink:href="#aV"/><use transform="matrix(0.05,0,0,0.05,18.900000000000002,0)" xlink:href="#aW"/><use transform="matrix(0.05,0,0,0.05,28.900000000000002,0)" xlink:href="#aL"/><use transform="matrix(0.05,0,0,0.05,38.900000000000006,0)" xlink:href="#aK"/><use transform="matrix(0.05,0,0,0.05,43.900000000000006,0)" xlink:href="#aN"/><use transform="matrix(0.05,0,0,0.05,47.85000000000001,0)" xlink:href="#aO"/><use transform="matrix(0.05,0,0,0.05,57.85,0)" xlink:href="#aP"/></g><g id="D"><use transform="matrix(0.05,0,0,0.05,0,0)" xlink:href="#aJ"/><use transform="matrix(0.05,0,0,0.05,9,0)" xlink:href="#aU"/><use transform="matrix(0.05,0,0,0.05,19,0)" xlink:href="#aV"/><use transform="matrix(0.05,0,0,0.05,24.95,0)" xlink:href="#aX"/><use transform="matrix(0.05,0,0,0.05,33.95,0)" xlink:href="#aU"/><use transform="matrix(0.05,0,0,0.05,43.95,0)" xlink:href="#aS"/><use transform="matrix(0.05,0,0,0.05,53.95,0)" xlink:href="#aV"/></g><path d="M197 0v-115H63V0H30v-248h33v105h134v-105h34V0h-34" id="bq"/><g id="E"><use transform="matrix(0.05,0,0,0.05,0,0)" xlink:href="#aB"/><use transform="matrix(0.05,0,0,0.05,12,0)" xlink:href="#aB"/><use transform="matrix(0.05,0,0,0.05,24,0)" xlink:href="#bq"/></g><path d="M68-38c1 34 0 65-14 84H32c9-13 17-26 17-46H33v-38h35" id="br"/><g id="F"><use transform="matrix(0.05,0,0,0.05,0,0)" xlink:href="#aL"/><use transform="matrix(0.05,0,0,0.05,10,0)" xlink:href="#aQ"/><use transform="matrix(0.05,0,0,0.05,20,0)" xlink:href="#aY"/><use transform="matrix(0.05,0,0,0.05,34.95,0)" xlink:href="#aN"/><use transform="matrix(0.05,0,0,0.05,38.900000000000006,0)" xlink:href="#aP"/><use transform="matrix(0.05,0,0,0.05,48.900000000000006,0)" xlink:href="#aN"/><use transform="matrix(0.05,0,0,0.05,52.85,0)" xlink:href="#aJ"/><use transform="matrix(0.05,0,0,0.05,61.85,0)" xlink:href="#aK"/><use transform="matrix(0.05,0,0,0.05,66.85000000000001,0)" xlink:href="#aL"/><use transform="matrix(0.05,0,0,0.05,76.85000000000001,0)" xlink:href="#aK"/><use transform="matrix(0.05,0,0,0.05,81.85000000000001,0)" xlink:href="#aU"/><use transform="matrix(0.05,0,0,0.05,91.85000000000001,0)" xlink:href="#aS"/><use transform="matrix(0.05,0,0,0.05,101.85000000000001,0)" xlink:href="#aV"/><use transform="matrix(0.05,0,0,0.05,106.80000000000001,0)" xlink:href="#br"/></g><g id="G"><use transform="matrix(0.05,0,0,0.05,0,0)" xlink:href="#aQ"/><use transform="matrix(0.05,0,0,0.05,10,0)" xlink:href="#aU"/></g><use transform="matrix(0.05,0,0,0.05,0,0)" xlink:href="#aH" id="H"/><g id="I"><use transform="matrix(0.05,0,0,0.05,0,0)" xlink:href="#aS"/><use transform="matrix(0.05,0,0,0.05,10,0)" xlink:href="#aK"/><use transform="matrix(0.05,0,0,0.05,15,0)" xlink:href="#aN"/><use transform="matrix(0.05,0,0,0.05,18.95,0)" xlink:href="#aM"/><use transform="matrix(0.05,0,0,0.05,22.9,0)" xlink:href="#aN"/><use transform="matrix(0.05,0,0,0.05,26.849999999999994,0)" xlink:href="#aJ"/><use transform="matrix(0.05,0,0,0.05,35.849999999999994,0)" xlink:href="#aL"/><use transform="matrix(0.05,0,0,0.05,45.849999999999994,0)" xlink:href="#aK"/><use transform="matrix(0.05,0,0,0.05,50.849999999999994,0)" xlink:href="#aU"/><use transform="matrix(0.05,0,0,0.05,60.849999999999994,0)" xlink:href="#aS"/><use transform="matrix(0.05,0,0,0.05,70.85,0)" xlink:href="#aV"/><use transform="matrix(0.05,0,0,0.05,76.8,0)" xlink:href="#aJ"/></g><g id="J"><use transform="matrix(0.05,0,0,0.05,0,0)" xlink:href="#aK"/><use transform="matrix(0.05,0,0,0.05,5,0)" xlink:href="#aV"/><use transform="matrix(0.05,0,0,0.05,10.95,0)" xlink:href="#aN"/><use transform="matrix(0.05,0,0,0.05,14.899999999999999,0)" xlink:href="#aP"/><use transform="matrix(0.05,0,0,0.05,24.9,0)" xlink:href="#aO"/><use transform="matrix(0.05,0,0,0.05,34.9,0)" xlink:href="#aY"/><use transform="matrix(0.05,0,0,0.05,49.85,0)" xlink:href="#aU"/></g><g id="K"><use transform="matrix(0.05,0,0,0.05,0,0)" xlink:href="#aU"/><use transform="matrix(0.05,0,0,0.05,10,0)" xlink:href="#aK"/></g><path d="M177-190C167-65 218 103 67 71c-23-6-38-20-44-43l32-5c15 47 100 32 89-28v-30C133-14 115 1 83 1 29 1 15-40 15-95c0-56 16-97 71-98 29-1 48 16 59 35 1-10 0-23 2-32h30zM94-22c36 0 50-32 50-73 0-42-14-75-50-75-39 0-46 34-46 75s6 73 46 73" id="bs"/><g id="L"><use transform="matrix(0.05,0,0,0.05,0,0)" xlink:href="#bs"/><use transform="matrix(0.05,0,0,0.05,10,0)" xlink:href="#aV"/><use transform="matrix(0.05,0,0,0.05,15.949999999999998,0)" xlink:href="#aO"/><use transform="matrix(0.05,0,0,0.05,25.950000000000003,0)" xlink:href="#aS"/><use transform="matrix(0.05,0,0,0.05,35.95,0)" xlink:href="#aT"/><use transform="matrix(0.05,0,0,0.05,45.95,0)" xlink:href="#aU"/></g><g id="M"><use transform="matrix(0.05,0,0,0.05,0,0)" xlink:href="#aK"/><use transform="matrix(0.05,0,0,0.05,5,0)" xlink:href="#aV"/><use transform="matrix(0.05,0,0,0.05,10.95,0)" xlink:href="#aN"/><use transform="matrix(0.05,0,0,0.05,14.899999999999999,0)" xlink:href="#aP"/><use transform="matrix(0.05,0,0,0.05,24.9,0)" xlink:href="#aO"/><use transform="matrix(0.05,0,0,0.05,34.9,0)" xlink:href="#aY"/><use transform="matrix(0.05,0,0,0.05,49.85,0)" xlink:href="#aU"/></g><g id="N"><use transform="matrix(0.05,0,0,0.05,0,0)" xlink:href="#bn"/><use transform="matrix(0.05,0,0,0.05,9,0)" xlink:href="#aO"/><use transform="matrix(0.05,0,0,0.05,19,0)" xlink:href="#aY"/><use transform="matrix(0.05,0,0,0.05,33.95,0)" xlink:href="#aY"/><use transform="matrix(0.05,0,0,0.05,48.900000000000006,0)" xlink:href="#aL"/><use transform="matrix(0.05,0,0,0.05,58.900000000000006,0)" xlink:href="#aP"/><use transform="matrix(0.05,0,0,0.05,68.9,0)" xlink:href="#aQ"/><use transform="matrix(0.05,0,0,0.05,78.9,0)" xlink:href="#aU"/></g><g id="O"><use transform="matrix(0.05,0,0,0.05,0,0)" xlink:href="#aT"/><use transform="matrix(0.05,0,0,0.05,10,0)" xlink:href="#aV"/><use transform="matrix(0.05,0,0,0.05,15.949999999999998,0)" xlink:href="#aO"/><use transform="matrix(0.05,0,0,0.05,25.950000000000003,0)" xlink:href="#aY"/><use transform="matrix(0.05,0,0,0.05,40.9,0)" xlink:href="#aT"/><use transform="matrix(0.05,0,0,0.05,50.9,0)" xlink:href="#aK"/></g><g id="P"><use transform="matrix(0.05,0,0,0.05,0,0)" xlink:href="#aM"/><use transform="matrix(0.05,0,0,0.05,3.95,0)" xlink:href="#aR"/><use transform="matrix(0.05,0,0,0.05,7.3500000000000005,0)" xlink:href="#aS"/><use transform="matrix(0.05,0,0,0.05,17.35,0)" xlink:href="#aK"/><use transform="matrix(0.05,0,0,0.05,22.35,0)" xlink:href="#aN"/><use transform="matrix(0.05,0,0,0.05,26.3,0)" xlink:href="#aM"/><use transform="matrix(0.05,0,0,0.05,30.25,0)" xlink:href="#aN"/><use transform="matrix(0.05,0,0,0.05,34.2,0)" xlink:href="#aJ"/><use transform="matrix(0.05,0,0,0.05,43.2,0)" xlink:href="#aL"/><use transform="matrix(0.05,0,0,0.05,53.2,0)" xlink:href="#aK"/><use transform="matrix(0.05,0,0,0.05,58.2,0)" xlink:href="#aU"/><use transform="matrix(0.05,0,0,0.05,68.2,0)" xlink:href="#aS"/><use transform="matrix(0.05,0,0,0.05,78.2,0)" xlink:href="#aV"/></g><g id="Q"><use transform="matrix(0.05,0,0,0.05,0,0)" xlink:href="#aI"/><use transform="matrix(0.05,0,0,0.05,5,0)" xlink:href="#aP"/><use transform="matrix(0.05,0,0,0.05,15,0)" xlink:href="#aJ"/><use transform="matrix(0.05,0,0,0.05,24,0)" xlink:href="#aK"/><use transform="matrix(0.05,0,0,0.05,29,0)" xlink:href="#aL"/><use transform="matrix(0.05,0,0,0.05,39,0)" xlink:href="#aM"/><use transform="matrix(0.05,0,0,0.05,42.95,0)" xlink:href="#aL"/><use transform="matrix(0.05,0,0,0.05,52.95,0)" xlink:href="#aK"/><use transform="matrix(0.05,0,0,0.05,57.95,0)" xlink:href="#aN"/><use transform="matrix(0.05,0,0,0.05,61.900000000000006,0)" xlink:href="#aO"/><use transform="matrix(0.05,0,0,0.05,71.9,0)" xlink:href="#aP"/></g><path d="M101-234c-31-9-42 10-38 44h38v23H63V0H32v-167H5v-23h27c-7-52 17-82 69-68v24" id="bt"/><g id="R"><use transform="matrix(0.05,0,0,0.05,0,0)" xlink:href="#bn"/><use transform="matrix(0.05,0,0,0.05,9,0)" xlink:href="#aO"/><use transform="matrix(0.05,0,0,0.05,19,0)" xlink:href="#aP"/><use transform="matrix(0.05,0,0,0.05,29,0)" xlink:href="#bt"/><use transform="matrix(0.05,0,0,0.05,34,0)" xlink:href="#aN"/><use transform="matrix(0.05,0,0,0.05,37.95,0)" xlink:href="#bs"/><use transform="matrix(0.05,0,0,0.05,47.95,0)" xlink:href="#aS"/><use transform="matrix(0.05,0,0,0.05,57.95,0)" xlink:href="#aV"/><use transform="matrix(0.05,0,0,0.05,63.900000000000006,0)" xlink:href="#aL"/><use transform="matrix(0.05,0,0,0.05,73.9,0)" xlink:href="#aK"/><use transform="matrix(0.05,0,0,0.05,78.9,0)" xlink:href="#aN"/><use transform="matrix(0.05,0,0,0.05,82.85000000000001,0)" xlink:href="#aO"/><use transform="matrix(0.05,0,0,0.05,92.85000000000001,0)" xlink:href="#aP"/></g><g id="S"><use transform="matrix(0.05,0,0,0.05,0,0)" xlink:href="#aJ"/><use transform="matrix(0.05,0,0,0.05,9,0)" xlink:href="#aU"/><use transform="matrix(0.05,0,0,0.05,19,0)" xlink:href="#aV"/><use transform="matrix(0.05,0,0,0.05,24.95,0)" xlink:href="#aX"/><use transform="matrix(0.05,0,0,0.05,33.95,0)" xlink:href="#aN"/><use transform="matrix(0.05,0,0,0.05,37.900000000000006,0)" xlink:href="#bn"/><use transform="matrix(0.05,0,0,0.05,46.900000000000006,0)" xlink:href="#aU"/></g><path d="M206 0h-36l-40-164L89 0H53L-1-190h32L70-26l43-164h34l41 164 42-164h31" id="bu"/><g id="T"><use transform="matrix(0.05,0,0,0.05,0,0)" xlink:href="#bu"/><use transform="matrix(0.05,0,0,0.05,12.950000000000001,0)" xlink:href="#aU"/><use transform="matrix(0.05,0,0,0.05,22.950000000000003,0)" xlink:href="#bo"/></g><g id="U"><use transform="matrix(0.05,0,0,0.05,0,0)" xlink:href="#bk"/><use transform="matrix(0.05,0,0,0.05,12.950000000000001,0)" xlink:href="#aO"/><use transform="matrix(0.05,0,0,0.05,22.950000000000003,0)" xlink:href="#aP"/><use transform="matrix(0.05,0,0,0.05,32.95,0)" xlink:href="#bt"/><use transform="matrix(0.05,0,0,0.05,37.95,0)" xlink:href="#aN"/><use transform="matrix(0.05,0,0,0.05,41.900000000000006,0)" xlink:href="#bs"/><use transform="matrix(0.05,0,0,0.05,51.900000000000006,0)" xlink:href="#aS"/><use transform="matrix(0.05,0,0,0.05,61.900000000000006,0)" xlink:href="#aV"/><use transform="matrix(0.05,0,0,0.05,67.85000000000001,0)" xlink:href="#aL"/><use transform="matrix(0.05,0,0,0.05,77.85000000000001,0)" xlink:href="#aK"/><use transform="matrix(0.05,0,0,0.05,82.85000000000001,0)" xlink:href="#aN"/><use transform="matrix(0.05,0,0,0.05,86.80000000000001,0)" xlink:href="#aO"/><use transform="matrix(0.05,0,0,0.05,96.80000000000001,0)" xlink:href="#aP"/></g><path d="M266 0h-40l-56-210L115 0H75L2-248h35L96-30l15-64 43-154h32l59 218 59-218h35" id="bv"/><g id="V"><use transform="matrix(0.05,0,0,0.05,0,0)" xlink:href="#bv"/><use transform="matrix(0.05,0,0,0.05,16.599999999999998,0)" xlink:href="#aU"/><use transform="matrix(0.05,0,0,0.05,26.599999999999994,0)" xlink:href="#bo"/><use transform="matrix(0.05,0,0,0.05,36.599999999999994,0)" xlink:href="#aB"/><use transform="matrix(0.05,0,0,0.05,48.599999999999994,0)" xlink:href="#aK"/><use transform="matrix(0.05,0,0,0.05,53.599999999999994,0)" xlink:href="#aO"/><use transform="matrix(0.05,0,0,0.05,63.599999999999994,0)" xlink:href="#aV"/><use transform="matrix(0.05,0,0,0.05,69.55,0)" xlink:href="#aY"/></g><path d="M179-190L93 31C79 59 56 82 12 73V49c39 6 53-20 64-50L1-190h34L92-34l54-156h33" id="bw"/><g id="W"><use transform="matrix(0.05,0,0,0.05,0,0)" xlink:href="#aQ"/><use transform="matrix(0.05,0,0,0.05,10,0)" xlink:href="#aU"/><use transform="matrix(0.05,0,0,0.05,20,0)" xlink:href="#aT"/><use transform="matrix(0.05,0,0,0.05,30,0)" xlink:href="#aM"/><use transform="matrix(0.05,0,0,0.05,33.95,0)" xlink:href="#aO"/><use transform="matrix(0.05,0,0,0.05,43.95,0)" xlink:href="#bw"/><use transform="matrix(0.05,0,0,0.05,52.95,0)" xlink:href="#aU"/><use transform="matrix(0.05,0,0,0.05,62.95,0)" xlink:href="#aY"/><use transform="matrix(0.05,0,0,0.05,77.9,0)" xlink:href="#aU"/><use transform="matrix(0.05,0,0,0.05,87.9,0)" xlink:href="#aP"/><use transform="matrix(0.05,0,0,0.05,97.9,0)" xlink:href="#aK"/></g><g id="X"><use transform="matrix(0.05,0,0,0.05,0,0)" xlink:href="#aQ"/><use transform="matrix(0.05,0,0,0.05,10,0)" xlink:href="#aS"/></g><g id="Y"><use transform="matrix(0.05,0,0,0.05,0,0)" xlink:href="#aQ"/><use transform="matrix(0.05,0,0,0.05,10,0)" xlink:href="#aN"/><use transform="matrix(0.05,0,0,0.05,13.949999999999998,0)" xlink:href="#aL"/><use transform="matrix(0.05,0,0,0.05,23.95,0)" xlink:href="#bs"/><use transform="matrix(0.05,0,0,0.05,33.95,0)" xlink:href="#aV"/><use transform="matrix(0.05,0,0,0.05,39.900000000000006,0)" xlink:href="#aL"/><use transform="matrix(0.05,0,0,0.05,49.900000000000006,0)" xlink:href="#aY"/><use transform="matrix(0.05,0,0,0.05,64.85000000000001,0)" xlink:href="#aY"/><use transform="matrix(0.05,0,0,0.05,79.80000000000001,0)" xlink:href="#aU"/></g><path d="M143 4C61 4 22-44 18-125c-5-107 100-154 193-111 17 8 29 25 37 43l-32 9c-13-25-37-40-76-40-61 0-88 39-88 99 0 61 29 100 91 101 35 0 62-11 79-27v-45h-74v-28h105v86C228-13 192 4 143 4" id="bx"/><g id="Z"><use transform="matrix(0.05,0,0,0.05,0,0)" xlink:href="#bx"/><use transform="matrix(0.05,0,0,0.05,14,0)" xlink:href="#aL"/><use transform="matrix(0.05,0,0,0.05,24,0)" xlink:href="#aP"/><use transform="matrix(0.05,0,0,0.05,34,0)" xlink:href="#aK"/><use transform="matrix(0.05,0,0,0.05,39,0)" xlink:href="#aK"/></g><g id="aa"><use transform="matrix(0.05,0,0,0.05,0,0)" xlink:href="#bi"/><use transform="matrix(0.05,0,0,0.05,12,0)" xlink:href="#aV"/><use transform="matrix(0.05,0,0,0.05,17.95,0)" xlink:href="#aU"/><use transform="matrix(0.05,0,0,0.05,27.950000000000003,0)" xlink:href="#aT"/><use transform="matrix(0.05,0,0,0.05,37.95,0)" xlink:href="#aL"/><use transform="matrix(0.05,0,0,0.05,47.95,0)" xlink:href="#aV"/><use transform="matrix(0.05,0,0,0.05,53.900000000000006,0)" xlink:href="#aL"/><use transform="matrix(0.05,0,0,0.05,63.900000000000006,0)" xlink:href="#aK"/><use transform="matrix(0.05,0,0,0.05,68.9,0)" xlink:href="#aN"/><use transform="matrix(0.05,0,0,0.05,72.85000000000001,0)" xlink:href="#aO"/><use transform="matrix(0.05,0,0,0.05,82.85000000000001,0)" xlink:href="#aP"/></g><g id="ab"><use transform="matrix(0.05,0,0,0.05,0,0)" xlink:href="#aQ"/><use transform="matrix(0.05,0,0,0.05,10,0)" xlink:href="#aU"/><use transform="matrix(0.05,0,0,0.05,20,0)" xlink:href="#aJ"/></g><g id="ac"><use transform="matrix(0.05,0,0,0.05,0,0)" xlink:href="#aT"/><use transform="matrix(0.05,0,0,0.05,10,0)" xlink:href="#aL"/><use transform="matrix(0.05,0,0,0.05,20,0)" xlink:href="#bs"/><use transform="matrix(0.05,0,0,0.05,30,0)" xlink:href="#aU"/><use transform="matrix(0.05,0,0,0.05,40,0)" xlink:href="#aJ"/></g><g id="ad"><use transform="matrix(0.05,0,0,0.05,0,0)" xlink:href="#bu"/><use transform="matrix(0.05,0,0,0.05,12.950000000000001,0)" xlink:href="#aU"/><use transform="matrix(0.05,0,0,0.05,22.950000000000003,0)" xlink:href="#bo"/></g><g id="ae"><use transform="matrix(0.05,0,0,0.05,0,0)" xlink:href="#bn"/><use transform="matrix(0.05,0,0,0.05,9,0)" xlink:href="#aO"/><use transform="matrix(0.05,0,0,0.05,19,0)" xlink:href="#aY"/><use transform="matrix(0.05,0,0,0.05,33.95,0)" xlink:href="#aT"/><use transform="matrix(0.05,0,0,0.05,43.95,0)" xlink:href="#aK"/><use transform="matrix(0.05,0,0,0.05,48.95,0)" xlink:href="#aU"/></g><g id="af"><use transform="matrix(0.05,0,0,0.05,0,0)" xlink:href="#aV"/><use transform="matrix(0.05,0,0,0.05,5.95,0)" xlink:href="#aU"/><use transform="matrix(0.05,0,0,0.05,15.949999999999998,0)" xlink:href="#aP"/><use transform="matrix(0.05,0,0,0.05,25.950000000000003,0)" xlink:href="#aQ"/><use transform="matrix(0.05,0,0,0.05,35.95,0)" xlink:href="#aS"/></g><path d="M233-177c-1 41-23 64-60 70L243 0h-38l-65-103H63V0H30v-248c88 3 205-21 203 71zM63-129c60-2 137 13 137-47 0-61-80-42-137-45v92" id="by"/><path d="M106-169C34-169 62-67 57 0H25v-261h32l-1 103c12-21 28-36 61-36 89 0 53 116 60 194h-32v-121c2-32-8-49-39-48" id="bz"/><g id="ag"><use transform="matrix(0.05,0,0,0.05,0,0)" xlink:href="#by"/><use transform="matrix(0.05,0,0,0.05,12.950000000000001,0)" xlink:href="#aU"/><use transform="matrix(0.05,0,0,0.05,22.950000000000003,0)" xlink:href="#bn"/><use transform="matrix(0.05,0,0,0.05,31.950000000000003,0)" xlink:href="#bz"/><use transform="matrix(0.05,0,0,0.05,41.95,0)" xlink:href="#aU"/><use transform="matrix(0.05,0,0,0.05,51.95,0)" xlink:href="#aV"/><use transform="matrix(0.05,0,0,0.05,57.900000000000006,0)" xlink:href="#bn"/><use transform="matrix(0.05,0,0,0.05,66.9,0)" xlink:href="#bz"/><use transform="matrix(0.05,0,0,0.05,76.9,0)" xlink:href="#aU"/></g><g id="ah"><use transform="matrix(0.05,0,0,0.05,0,0)" xlink:href="#aV"/><use transform="matrix(0.05,0,0,0.05,5.95,0)" xlink:href="#aW"/><use transform="matrix(0.05,0,0,0.05,15.949999999999998,0)" xlink:href="#aT"/><use transform="matrix(0.05,0,0,0.05,25.950000000000003,0)" xlink:href="#aO"/><use transform="matrix(0.05,0,0,0.05,35.95,0)" xlink:href="#aP"/><use transform="matrix(0.05,0,0,0.05,45.95,0)" xlink:href="#aJ"/><use transform="matrix(0.05,0,0,0.05,54.95,0)" xlink:href="#aU"/><use transform="matrix(0.05,0,0,0.05,64.95,0)" xlink:href="#aJ"/></g><g id="ai"><use transform="matrix(0.05,0,0,0.05,0,0)" xlink:href="#aL"/><use transform="matrix(0.05,0,0,0.05,10,0)" xlink:href="#aS"/></g><path d="M145-31C134-9 116 4 85 4 32 4 16-35 15-94c0-59 17-99 70-100 32-1 48 14 60 33 0-11-1-24 2-32h30l-1 268h-32zM93-21c41 0 51-33 51-76s-8-73-50-73c-40 0-46 35-46 75s5 74 45 74" id="bA"/><g id="aj"><use transform="matrix(0.05,0,0,0.05,0,0)" xlink:href="#bA"/><use transform="matrix(0.05,0,0,0.05,10,0)" xlink:href="#aS"/><use transform="matrix(0.05,0,0,0.05,20,0)" xlink:href="#aU"/><use transform="matrix(0.05,0,0,0.05,30,0)" xlink:href="#aJ"/><use transform="matrix(0.05,0,0,0.05,39,0)" xlink:href="#aK"/><use transform="matrix(0.05,0,0,0.05,44,0)" xlink:href="#aN"/><use transform="matrix(0.05,0,0,0.05,47.95,0)" xlink:href="#aO"/><use transform="matrix(0.05,0,0,0.05,57.95,0)" xlink:href="#aP"/><use transform="matrix(0.05,0,0,0.05,67.95,0)" xlink:href="#aJ"/></g><use transform="matrix(0.05,0,0,0.05,0,0)" xlink:href="#aL" id="ak"/><g id="al"><use transform="matrix(0.05,0,0,0.05,0,0)" xlink:href="#aK"/><use transform="matrix(0.05,0,0,0.05,5,0)" xlink:href="#aV"/><use transform="matrix(0.05,0,0,0.05,10.95,0)" xlink:href="#aL"/><use transform="matrix(0.05,0,0,0.05,20.95,0)" xlink:href="#aN"/><use transform="matrix(0.05,0,0,0.05,24.9,0)" xlink:href="#aK"/><use transform="matrix(0.05,0,0,0.05,29.899999999999995,0)" xlink:href="#aU"/><use transform="matrix(0.05,0,0,0.05,39.9,0)" xlink:href="#aV"/></g><g id="am"><use transform="matrix(0.05,0,0,0.05,0,0)" xlink:href="#aI"/><use transform="matrix(0.05,0,0,0.05,5,0)" xlink:href="#aY"/><use transform="matrix(0.05,0,0,0.05,19.950000000000003,0)" xlink:href="#aT"/><use transform="matrix(0.05,0,0,0.05,29.950000000000003,0)" xlink:href="#aM"/><use transform="matrix(0.05,0,0,0.05,33.900000000000006,0)" xlink:href="#aU"/><use transform="matrix(0.05,0,0,0.05,43.900000000000006,0)" xlink:href="#aY"/><use transform="matrix(0.05,0,0,0.05,58.85,0)" xlink:href="#aU"/><use transform="matrix(0.05,0,0,0.05,68.85000000000001,0)" xlink:href="#aP"/><use transform="matrix(0.05,0,0,0.05,78.85000000000001,0)" xlink:href="#aK"/><use transform="matrix(0.05,0,0,0.05,83.85000000000001,0)" xlink:href="#aL"/><use transform="matrix(0.05,0,0,0.05,93.85000000000001,0)" xlink:href="#aK"/><use transform="matrix(0.05,0,0,0.05,98.85000000000001,0)" xlink:href="#aN"/><use transform="matrix(0.05,0,0,0.05,102.80000000000001,0)" xlink:href="#aO"/><use transform="matrix(0.05,0,0,0.05,112.80000000000001,0)" xlink:href="#aP"/></g><g id="an"><use transform="matrix(0.05,0,0,0.05,0,0)" xlink:href="#aK"/><use transform="matrix(0.05,0,0,0.05,5,0)" xlink:href="#aV"/><use transform="matrix(0.05,0,0,0.05,10.95,0)" xlink:href="#aL"/><use transform="matrix(0.05,0,0,0.05,20.95,0)" xlink:href="#aN"/><use transform="matrix(0.05,0,0,0.05,24.9,0)" xlink:href="#aK"/><use transform="matrix(0.05,0,0,0.05,29.899999999999995,0)" xlink:href="#aW"/></g><g id="ao"><use transform="matrix(0.05,0,0,0.05,0,0)" xlink:href="#aQ"/><use transform="matrix(0.05,0,0,0.05,10,0)" xlink:href="#aL"/><use transform="matrix(0.05,0,0,0.05,20,0)" xlink:href="#aP"/><use transform="matrix(0.05,0,0,0.05,30,0)" xlink:href="#aJ"/></g><g id="ap"><use transform="matrix(0.05,0,0,0.05,0,0)" xlink:href="#by"/><use transform="matrix(0.05,0,0,0.05,12.950000000000001,0)" xlink:href="#aU"/><use transform="matrix(0.05,0,0,0.05,22.950000000000003,0)" xlink:href="#aQ"/><use transform="matrix(0.05,0,0,0.05,32.95,0)" xlink:href="#aL"/><use transform="matrix(0.05,0,0,0.05,42.95,0)" xlink:href="#bn"/><use transform="matrix(0.05,0,0,0.05,51.95,0)" xlink:href="#aK"/><use transform="matrix(0.05,0,0,0.05,56.95,0)" xlink:href="#aN"/><use transform="matrix(0.05,0,0,0.05,60.900000000000006,0)" xlink:href="#aO"/><use transform="matrix(0.05,0,0,0.05,70.9,0)" xlink:href="#aP"/></g><g id="aq"><use transform="matrix(0.05,0,0,0.05,0,0)" xlink:href="#aQ"/><use transform="matrix(0.05,0,0,0.05,10,0)" xlink:href="#aO"/><use transform="matrix(0.05,0,0,0.05,20,0)" xlink:href="#aJ"/><use transform="matrix(0.05,0,0,0.05,29,0)" xlink:href="#aJ"/><use transform="matrix(0.05,0,0,0.05,38,0)" xlink:href="#aN"/><use transform="matrix(0.05,0,0,0.05,41.95,0)" xlink:href="#aU"/><use transform="matrix(0.05,0,0,0.05,51.95,0)" xlink:href="#aV"/></g><g id="ar"><use transform="matrix(0.05,0,0,0.05,0,0)" xlink:href="#aQ"/><use transform="matrix(0.05,0,0,0.05,10,0)" xlink:href="#aR"/><use transform="matrix(0.05,0,0,0.05,13.4,0)" xlink:href="#aW"/><use transform="matrix(0.05,0,0,0.05,23.4,0)" xlink:href="#aK"/><use transform="matrix(0.05,0,0,0.05,28.399999999999995,0)" xlink:href="#aS"/><use transform="matrix(0.05,0,0,0.05,38.4,0)" xlink:href="#aQ"/><use transform="matrix(0.05,0,0,0.05,48.4,0)" xlink:href="#aU"/></g><g id="as"><use transform="matrix(0.05,0,0,0.05,0,0)" xlink:href="#aQ"/><use transform="matrix(0.05,0,0,0.05,10,0)" xlink:href="#aR"/><use transform="matrix(0.05,0,0,0.05,13.4,0)" xlink:href="#aW"/><use transform="matrix(0.05,0,0,0.05,23.4,0)" xlink:href="#aK"/><use transform="matrix(0.05,0,0,0.05,28.399999999999995,0)" xlink:href="#aS"/><use transform="matrix(0.05,0,0,0.05,38.4,0)" xlink:href="#aQ"/><use transform="matrix(0.05,0,0,0.05,48.4,0)" xlink:href="#aU"/></g><g id="at"><use transform="matrix(0.05,0,0,0.05,0,0)" xlink:href="#aV"/><use transform="matrix(0.05,0,0,0.05,5.95,0)" xlink:href="#aU"/><use transform="matrix(0.05,0,0,0.05,15.949999999999998,0)" xlink:href="#aP"/><use transform="matrix(0.05,0,0,0.05,25.950000000000003,0)" xlink:href="#aQ"/><use transform="matrix(0.05,0,0,0.05,35.95,0)" xlink:href="#aS"/></g><g id="au"><use transform="matrix(0.05,0,0,0.05,0,0)" xlink:href="#aM"/><use transform="matrix(0.05,0,0,0.05,3.95,0)" xlink:href="#aR"/><use transform="matrix(0.05,0,0,0.05,7.3500000000000005,0)" xlink:href="#aN"/><use transform="matrix(0.05,0,0,0.05,11.3,0)" xlink:href="#aY"/><use transform="matrix(0.05,0,0,0.05,26.25,0)" xlink:href="#aT"/><use transform="matrix(0.05,0,0,0.05,36.25,0)" xlink:href="#aM"/><use transform="matrix(0.05,0,0,0.05,40.2,0)" xlink:href="#aU"/><use transform="matrix(0.05,0,0,0.05,50.2,0)" xlink:href="#aY"/><use transform="matrix(0.05,0,0,0.05,65.15,0)" xlink:href="#aU"/><use transform="matrix(0.05,0,0,0.05,75.15,0)" xlink:href="#aP"/><use transform="matrix(0.05,0,0,0.05,85.15,0)" xlink:href="#aK"/><use transform="matrix(0.05,0,0,0.05,90.15,0)" xlink:href="#aL"/><use transform="matrix(0.05,0,0,0.05,100.15,0)" xlink:href="#aK"/><use transform="matrix(0.05,0,0,0.05,105.15,0)" xlink:href="#aN"/><use transform="matrix(0.05,0,0,0.05,109.10000000000001,0)" xlink:href="#aO"/><use transform="matrix(0.05,0,0,0.05,119.10000000000001,0)" xlink:href="#aP"/></g><g id="av"><use transform="matrix(0.06172839506172839,0,0,0.06172839506172839,0,0)" xlink:href="#bm"/><use transform="matrix(0.06172839506172839,0,0,0.06172839506172839,18.456790123456788,0)" xlink:href="#aU"/><use transform="matrix(0.06172839506172839,0,0,0.06172839506172839,30.80246913580247,0)" xlink:href="#aY"/><use transform="matrix(0.06172839506172839,0,0,0.06172839506172839,49.25925925925925,0)" xlink:href="#bo"/><use transform="matrix(0.06172839506172839,0,0,0.06172839506172839,61.60493827160493,0)" xlink:href="#aV"/><use transform="matrix(0.06172839506172839,0,0,0.06172839506172839,68.9506172839506,0)" xlink:href="#aU"/><use transform="matrix(0.06172839506172839,0,0,0.06172839506172839,81.29629629629629,0)" xlink:href="#aJ"/></g><g id="aw"><use transform="matrix(0.06172839506172839,0,0,0.06172839506172839,0,0)" xlink:href="#aQ"/><use transform="matrix(0.06172839506172839,0,0,0.06172839506172839,12.345679012345679,0)" xlink:href="#aU"/></g><g id="ax"><use transform="matrix(0.06172839506172839,0,0,0.06172839506172839,0,0)" xlink:href="#aM"/><use transform="matrix(0.06172839506172839,0,0,0.06172839506172839,4.876543209876543,0)" xlink:href="#aR"/><use transform="matrix(0.06172839506172839,0,0,0.06172839506172839,9.074074074074073,0)" xlink:href="#aW"/><use transform="matrix(0.06172839506172839,0,0,0.06172839506172839,21.419753086419753,0)" xlink:href="#bA"/><use transform="matrix(0.06172839506172839,0,0,0.06172839506172839,33.76543209876543,0)" xlink:href="#aS"/><use transform="matrix(0.06172839506172839,0,0,0.06172839506172839,46.11111111111111,0)" xlink:href="#aN"/><use transform="matrix(0.06172839506172839,0,0,0.06172839506172839,50.98765432098765,0)" xlink:href="#aT"/><use transform="matrix(0.06172839506172839,0,0,0.06172839506172839,63.33333333333333,0)" xlink:href="#aU"/></g><path fill="#333" d="M205 0l-28-72H64L36 0H1l101-248h38L239 0h-34zm-38-99l-47-123c-12 45-31 82-46 123h93" id="bB"/><path fill="#333" d="M24 0v-261h32V0H24" id="bC"/><path fill="#333" d="M100-194c63 0 86 42 84 106H49c0 40 14 67 53 68 26 1 43-12 49-29l28 8c-11 28-37 45-77 45C44 4 14-33 15-96c1-61 26-98 85-98zm52 81c6-60-76-77-97-28-3 7-6 17-6 28h103" id="bD"/><path fill="#333" d="M141 0L90-78 38 0H4l68-98-65-92h35l48 74 47-74h35l-64 92 68 98h-35" id="bE"/><path fill="#333" d="M141-36C126-15 110 5 73 4 37 3 15-17 15-53c-1-64 63-63 125-63 3-35-9-54-41-54-24 1-41 7-42 31l-33-3c5-37 33-52 76-52 45 0 72 20 72 64v82c-1 20 7 32 28 27v20c-31 9-61-2-59-35zM48-53c0 20 12 33 32 33 41-3 63-29 60-74-43 2-92-5-92 41" id="bF"/><path fill="#333" d="M117-194c89-4 53 116 60 194h-32v-121c0-31-8-49-39-48C34-167 62-67 57 0H25l-1-190h30c1 10-1 24 2 32 11-22 29-35 61-36" id="bG"/><path fill="#333" d="M85-194c31 0 48 13 60 33l-1-100h32l1 261h-30c-2-10 0-23-3-31C134-8 116 4 85 4 32 4 16-35 15-94c0-66 23-100 70-100zm9 24c-40 0-46 34-46 75 0 40 6 74 45 74 42 0 51-32 51-76 0-42-9-74-50-73" id="bH"/><path fill="#333" d="M114-163C36-179 61-72 57 0H25l-1-190h30c1 12-1 29 2 39 6-27 23-49 58-41v29" id="bI"/><g id="ay"><use transform="matrix(0.05,0,0,0.05,0,0)" xlink:href="#bB"/><use transform="matrix(0.05,0,0,0.05,12,0)" xlink:href="#bC"/><use transform="matrix(0.05,0,0,0.05,15.949999999999998,0)" xlink:href="#bD"/><use transform="matrix(0.05,0,0,0.05,25.950000000000003,0)" xlink:href="#bE"/><use transform="matrix(0.05,0,0,0.05,34.95,0)" xlink:href="#bF"/><use transform="matrix(0.05,0,0,0.05,44.95,0)" xlink:href="#bG"/><use transform="matrix(0.05,0,0,0.05,54.95,0)" xlink:href="#bH"/><use transform="matrix(0.05,0,0,0.05,64.95,0)" xlink:href="#bI"/><use transform="matrix(0.05,0,0,0.05,70.9,0)" xlink:href="#bD"/></g><path fill="#333" d="M185-189c-5-48-123-54-124 2 14 75 158 14 163 119 3 78-121 87-175 55-17-10-28-26-33-46l33-7c5 56 141 63 141-1 0-78-155-14-162-118-5-82 145-84 179-34 5 7 8 16 11 25" id="bJ"/><path fill="#333" d="M210-169c-67 3-38 105-44 169h-31v-121c0-29-5-50-35-48C34-165 62-65 56 0H25l-1-190h30c1 10-1 24 2 32 10-44 99-50 107 0 11-21 27-35 58-36 85-2 47 119 55 194h-31v-121c0-29-5-49-35-48" id="bK"/><g id="az"><use transform="matrix(0.05,0,0,0.05,0,0)" xlink:href="#bJ"/><use transform="matrix(0.05,0,0,0.05,12,0)" xlink:href="#bF"/><use transform="matrix(0.05,0,0,0.05,22,0)" xlink:href="#bK"/></g><path fill="#333" d="M137-103V0h-34v-103L8-248h37l75 118 75-118h37" id="bL"/><path fill="#333" d="M24-231v-30h32v30H24zM24 0v-190h32V0H24" id="bM"/><path fill="#333" d="M135-143c-3-34-86-38-87 0 15 53 115 12 119 90S17 21 10-45l28-5c4 36 97 45 98 0-10-56-113-15-118-90-4-57 82-63 122-42 12 7 21 19 24 35" id="bN"/><g id="aA"><use transform="matrix(0.05,0,0,0.05,0,0)" xlink:href="#bL"/><use transform="matrix(0.05,0,0,0.05,10.65,0)" xlink:href="#bF"/><use transform="matrix(0.05,0,0,0.05,20.65,0)" xlink:href="#bG"/><use transform="matrix(0.05,0,0,0.05,30.649999999999995,0)" xlink:href="#bM"/><use transform="matrix(0.05,0,0,0.05,34.6,0)" xlink:href="#bN"/></g></defs></g></svg>